<svg xmlns="http://www.w3.org/2000/svg" xmlns:xlink="http://www.w3.org/1999/xlink" viewBox="0 0 1536.34 1528.77"><defs><style>.cls-1{isolation:isolate;}.cls-2{fill:#8aa8ff;}.cls-3{fill:#deebff;}.cls-11,.cls-4{opacity:0.24;}.cls-11,.cls-15,.cls-37,.cls-4{mix-blend-mode:multiply;}.cls-4{fill:url(#linear-gradient);}.cls-5{fill:#d7e4ff;}.cls-6{fill:url(#linear-gradient-2);}.cls-7{fill:url(#linear-gradient-3);}.cls-8{fill:#513983;}.cls-9{fill:url(#linear-gradient-4);}.cls-10{fill:url(#linear-gradient-5);}.cls-11{fill:url(#linear-gradient-6);}.cls-12{fill:#2f2f7f;}.cls-13{fill:#41409e;}.cls-14{fill:#f89ab5;}.cls-15{fill:#e6e6e6;}.cls-16{fill:#a5c4e5;}.cls-17{fill:#e655e2;}.cls-18{fill:#ed66ed;}.cls-19{fill:#bad4f5;}.cls-20{fill:#c2ddf9;}.cls-21{fill:#db8faa;}.cls-22,.cls-23{fill:#0a1a4e;}.cls-23{opacity:0.75;mix-blend-mode:screen;}.cls-24{fill:#071335;}.cls-25{fill:#3949ab;}.cls-26,.cls-27{fill:#ffee58;}.cls-26{opacity:0.64;}.cls-28{fill:#1ebcbf;}.cls-29{fill:#7292d3;}.cls-30{fill:#fbc02d;}.cls-31{fill:#db4984;}.cls-32{fill:#3f3af7;}.cls-33{fill:#5954ff;}.cls-34{fill:#ff4d8c;}.cls-35{fill:#fc92ff;}.cls-36,.cls-37{fill:#d845d8;}.cls-38{fill:#fff;}.cls-39{fill:#e5af03;}.cls-40{fill:#fec601;}.cls-41{fill:#d2e4ff;}.cls-42{fill:#aec5ff;}.cls-43{fill:#fdd835;}.cls-44{fill:#34b2cc;opacity:0.15;}.cls-45{fill:#7c9ae5;}</style><linearGradient id="linear-gradient" x1="43.96" y1="762.08" x2="238.66" y2="762.08" gradientUnits="userSpaceOnUse"><stop offset="0" stop-color="#3bbfff"/><stop offset="0.29" stop-color="#2f93f0"/><stop offset="0.6" stop-color="#256be2"/><stop offset="0.85" stop-color="#1e52d9"/><stop offset="1" stop-color="#1c49d6"/></linearGradient><linearGradient id="linear-gradient-2" x1="37.81" y1="580.43" x2="202.27" y2="580.43" gradientUnits="userSpaceOnUse"><stop offset="0" stop-color="#fdad64"/><stop offset="0.42" stop-color="#fe8862"/><stop offset="0.78" stop-color="#ff6f61"/><stop offset="1" stop-color="#ff6660"/></linearGradient><linearGradient id="linear-gradient-3" x1="-1073.49" y1="1336.02" x2="-687.38" y2="1336.02" gradientTransform="matrix(0.85, -0.53, 0.53, 0.85, 172.58, -1355.49)" gradientUnits="userSpaceOnUse"><stop offset="0" stop-color="#513983"/><stop offset="1" stop-color="#d671d9"/></linearGradient><linearGradient id="linear-gradient-4" x1="11.96" y1="556.57" x2="254.64" y2="556.57" gradientTransform="matrix(1, -0.06, 0.06, 1, 52.81, -154.68)" xlink:href="#linear-gradient-3"/><linearGradient id="linear-gradient-5" x1="-2272.22" y1="2049.3" x2="-2187.5" y2="1857" gradientTransform="translate(-344.76 -2503.28) rotate(-56.22)" xlink:href="#linear-gradient-3"/><linearGradient id="linear-gradient-6" x1="219.97" y1="1410.35" x2="327.81" y2="1410.35" xlink:href="#linear-gradient"/></defs><g class="cls-1"><g id="Layer_2" data-name="Layer 2"><g id="Layer_1-2" data-name="Layer 1"><path class="cls-2" d="M748.71,220.16l10.87-6.25c5.4-2.76,4.09-3.66-1.29-25.88-1-4.34-4.52-8.39-7.76-9-8.29-1.68-9.67-.94-14.07-10.25-1.62-3.43-1.64-6.86-.05-8.47l3.74-3.78c2-2,1.39-6.82-1.36-10.71-19.19-27.18-14.61-22.57-28-15.76-1.89-.72-2.94-2-4.78-3.68-5.2-4.82-4.37-10-4.37-16.62a13.6,13.6,0,0,0-6.15-10.66C678,89,679,88.53,674.88,91.25c-.1,0-2.4,1.37-2.5,1.44s-10.15,5.84-10.71,6.14l-3.7-8c-2-4.33-5.84-7.25-8.59-6.53-10.91,2.85-12.17,2.87-14.33,4.47-.08,0-29.31,16.83-29.38,16.89-2.82,1.58-2.42,5.38-1.28,8.26-.12.09-15.43,8.89-15.43,8.89-2.64,1.57-1.57-.09-6.91,15.82-1,3.12.72,8.16,4,11.23,5.61,5.35,9.27,8,10.12,13.51l-9.62,5.53c-6.9,3.52-5.63,3.15,0,26.6,1.05,4.34,4.52,8.39,7.76,9,8.3,1.68,9.67.94,14.07,10.25,1.62,3.43,1.64,6.86,0,8.47L604.68,227c-2,2-1.39,6.82,1.36,10.71,19.22,27.22,14.58,22.53,28,15.76,1.89.72,2.94,2,4.78,3.68,5.2,4.82,4.37,10,4.37,16.62a13.62,13.62,0,0,0,6.15,10.66l14.54,8.39c4,2.28,3.89.09,19.26-8.16l3.7,8c2,4.32,5.84,7.25,8.59,6.53,9.69-2.53,12.31-2.73,15.9-5.37l28.13-16.17c2-1.12,2.4-4.44,1-8.09.12-.09,15.43-8.88,15.43-8.88,2.64-1.57,1.55.14,6.91-15.82,1.05-3.13-.72-8.16-3.95-11.24C753.27,228.37,749.56,225.72,748.71,220.16ZM652.78,157.7c22.72,10.29,41.76,43.39,39.27,68.12C669.4,215.55,650.29,182.5,652.78,157.7Z"/><path class="cls-3" d="M727.26,251.81l-6-5.7a13.68,13.68,0,0,1-4.25-9.36c0-.35,0-.7,0-1.05s0-.71,0-1.06c-.06-3.16,1.67-5,4.25-4.44l6,1.21c3.23.65,5-2.33,4-6.67l-4.49-18.56c-1.05-4.34-4.53-8.39-7.76-9l-6-1.23c-2.57-.52-5.39-3.22-6.94-6.67-.36-.79-.72-1.57-1.09-2.36-1.62-3.43-1.64-6.86,0-8.46l3.74-3.78c2-2,1.39-6.82-1.36-10.72l-11.77-16.66c-2.75-3.89-6.59-5.41-8.59-3.39l-3.71,3.75c-1.58,1.6-4.39,1-6.94-1.44-.59-.57-1.19-1.14-1.79-1.69a13.81,13.81,0,0,1-4.37-9.33v-7.29a13.58,13.58,0,0,0-6.15-10.66l-14.54-8.4c-3.4-2-6.15-.37-6.15,3.56v7.29c0,3.13-1.78,4.87-4.37,4.28-.6-.13-1.2-.26-1.79-.37-2.55-.48-5.36-3.14-6.94-6.57l-3.71-8c-2-4.33-5.84-7.25-8.59-6.53L606,105.51c-2.75.72-3.35,4.81-1.36,9.14l3.74,8.1c1.59,3.43,1.57,6.85,0,8.4-.37.36-.73.73-1.09,1.11-1.55,1.65-4.36,1.11-6.94-1.34l-6-5.76c-3.24-3.08-6.71-3-7.76.09l-4.49,13.37c-1,3.12.72,8.16,4,11.23l6,5.71a13.66,13.66,0,0,1,4.25,9.35V167c.06,3.17-1.67,5-4.25,4.45l-6-1.21c-3.23-.66-5,2.33-4,6.67l4.49,18.56c1.05,4.34,4.52,8.39,7.76,9l6,1.22c2.57.52,5.39,3.23,6.94,6.68.36.79.72,1.57,1.09,2.35,1.62,3.43,1.64,6.86,0,8.47L604.68,227c-2,2-1.39,6.82,1.36,10.71l11.77,16.66c2.75,3.9,6.59,5.41,8.59,3.39l3.71-3.75c1.58-1.6,4.39-1,6.94,1.45.59.57,1.19,1.13,1.79,1.69a13.81,13.81,0,0,1,4.37,9.32v7.3a13.62,13.62,0,0,0,6.15,10.66l14.54,8.39c3.4,2,6.15.37,6.15-3.55V282c0-3.13,1.78-4.87,4.37-4.28.6.14,1.2.26,1.79.38,2.55.48,5.36,3.13,6.94,6.56l3.71,8c2,4.32,5.84,7.25,8.59,6.53l11.77-3.08c2.75-.72,3.36-4.81,1.36-9.14l-3.74-8.09c-1.59-3.44-1.57-6.85,0-8.41.37-.36.73-.72,1.09-1.1,1.55-1.66,4.36-1.11,6.94,1.33l6,5.76c3.23,3.08,6.71,3.05,7.76-.08l4.49-13.37C732.26,259.92,730.49,254.89,727.26,251.81ZM656.63,242C637,230.62,621,203,621,180.25s16-31.94,35.64-20.57,35.64,39,35.64,61.73S676.31,253.35,656.63,242Z"/><path class="cls-2" d="M1189.23,459l28.35-16.31c14.08-7.18,10.66-9.55-3.37-67.51-2.74-11.32-11.8-21.88-20.23-23.59-21.64-4.37-25.24-2.45-36.71-26.75-4.22-8.95-4.27-17.89-.13-22.08l9.75-9.87c5.21-5.27,3.62-17.79-3.56-27.95-50-70.88-38.1-58.86-73.09-41.1-4.94-1.88-7.68-5.17-12.46-9.6-13.57-12.58-11.4-26-11.4-43.36,0-10.24-7.19-22.69-16.05-27.81-45.7-26.38-43-27.48-53.73-20.38-.25.12-6.25,3.56-6.52,3.75,0,0-26.49,15.23-27.94,16l-9.64-20.88c-5.21-11.3-15.25-18.93-22.43-17.05-28.46,7.44-31.75,7.49-37.38,11.65-.22.13-76.45,43.92-76.66,44.07-7.34,4.13-6.29,14.06-3.31,21.57-.32.23-40.27,23.17-40.27,23.17-6.89,4.1-4.09-.21-18,41.28-2.74,8.16,1.88,21.28,10.31,29.31,14.64,13.95,24.19,20.77,26.4,35.24-.24.13-24.85,14.27-25.09,14.43-18,9.17-14.7,8.22.1,69.39,2.74,11.32,11.8,21.88,20.23,23.58,21.68,4.38,25.24,2.47,36.71,26.76,4.23,9,4.28,17.89.14,22.08L813.47,477c-5.21,5.27-3.62,17.78,3.55,27.94,50.14,71,38,58.78,73.1,41.11,4.93,1.88,7.65,5.15,12.45,9.6,13.58,12.58,11.4,26,11.4,43.36,0,10.24,7.19,22.69,16.06,27.81L968,648.69c10.31,5.95,10.15.22,50.26-21.29l9.63,20.88c5.22,11.29,15.26,18.93,22.43,17.05,25.28-6.61,32.11-7.12,41.46-14l73.4-42.19c5.2-2.92,6.27-11.59,2.5-21.1.33-.24,40.26-23.18,40.26-23.18,6.88-4.09,4,.37,18-41.27,2.74-8.16-1.87-21.28-10.31-29.32C1201.11,480.45,1191.44,473.55,1189.23,459ZM939,296.08c59.26,26.86,109,113.23,102.46,177.74C982.3,447,932.44,360.8,939,296.08Z"/><path class="cls-3" d="M1133.26,541.62l-15.63-14.89c-6.72-6.4-11.24-16.32-11.1-24.4,0-.9,0-1.82,0-2.74s0-1.84,0-2.77c-.14-8.25,4.37-12.95,11.1-11.59l15.63,3.16c8.43,1.71,13-6.09,10.31-17.41l-11.73-48.42c-2.74-11.32-11.79-21.88-20.23-23.58l-15.77-3.19c-6.7-1.36-14-8.42-18.1-17.42q-1.4-3.08-2.83-6.14c-4.23-9-4.28-17.9-.14-22.09l9.75-9.86c5.21-5.28,3.62-17.79-3.55-27.95l-30.69-43.46c-7.17-10.16-17.21-14.12-22.43-8.85l-9.67,9.79c-4.12,4.17-11.46,2.64-18.11-3.78q-2.31-2.23-4.66-4.41c-6.77-6.28-11.39-16.15-11.39-24.33v-19c0-10.24-7.19-22.69-16.06-27.81L930,168.55c-8.87-5.11-16.06-1-16.06,9.27v19c0,8.17-4.63,12.71-11.4,11.17-1.56-.36-3.11-.68-4.65-1-6.66-1.25-14-8.19-18.11-17.13l-9.68-21c-5.21-11.29-15.25-18.92-22.42-17.05l-30.69,8c-7.17,1.87-8.76,12.55-3.55,23.84l9.75,21.12c4.13,9,4.08,17.87-.14,21.94-1,.93-1.9,1.89-2.83,2.87-4,4.33-11.39,2.91-18.1-3.48l-15.78-15c-8.43-8-17.49-7.93-20.23.22l-11.72,34.89c-2.74,8.16,1.88,21.28,10.31,29.31l15.63,14.89c6.72,6.4,11.23,16.32,11.09,24.4,0,.91,0,1.82,0,2.74s0,1.84,0,2.77c.14,8.25-4.36,12.95-11.09,11.59l-15.63-3.16c-8.43-1.7-13.05,6.09-10.31,17.41l11.72,48.42c2.74,11.32,11.8,21.88,20.23,23.58l15.78,3.19c6.7,1.36,14.05,8.43,18.1,17.42.93,2.06,1.87,4.1,2.83,6.15,4.23,9,4.28,17.89.14,22.08L813.47,477c-5.21,5.27-3.62,17.78,3.55,27.94l30.69,43.47c7.17,10.16,17.21,14.12,22.42,8.84l9.68-9.78c4.12-4.18,11.46-2.65,18.11,3.77q2.31,2.24,4.65,4.41C909.35,561.9,914,571.77,914,580v19c0,10.24,7.19,22.69,16.06,27.81L968,648.69c8.87,5.12,16.06,1,16.06-9.27v-19c0-8.17,4.63-12.71,11.39-11.17,1.57.36,3.12.68,4.66,1,6.66,1.25,14,8.19,18.11,17.14l9.67,20.95c5.22,11.29,15.26,18.93,22.43,17.05l30.69-8c7.17-1.87,8.76-12.55,3.55-23.84l-9.75-21.12c-4.14-9-4.09-17.87.14-21.94,1-.92,1.9-1.88,2.83-2.87,4-4.32,11.39-2.91,18.1,3.48l15.77,15c8.44,8,17.49,7.93,20.23-.22l11.73-34.89C1146.31,562.78,1141.69,549.65,1133.26,541.62ZM949,516c-51.35-29.65-93-101.75-93-161s41.63-83.34,93-53.69,93,101.76,93,161.06S1000.35,545.64,949,516Z"/><path class="cls-2" d="M832,102.76l7.35-4.22c3.65-1.87,2.76-2.48-.87-17.51-.72-2.93-3.06-5.67-5.25-6.11-5.61-1.14-6.55-.64-9.52-6.94-1.09-2.32-1.11-4.64,0-5.73l2.52-2.55c1.36-1.37.94-4.62-.92-7.25-13-18.38-9.87-15.26-18.95-10.66-1.28-.49-2-1.34-3.23-2.49-3.52-3.26-3-6.73-3-11.24A9.22,9.22,0,0,0,796,20.85c-11.84-6.84-11.15-7.12-13.93-5.28l-1.69,1s-6.86,3.95-7.24,4.15l-2.5-5.41c-1.35-2.93-4-4.91-5.81-4.42-7.39,1.93-8.24,1.94-9.7,3,0,0-19.82,11.39-19.87,11.43-1.91,1.07-1.63,3.64-.86,5.59-.08.06-10.44,6-10.44,6-1.79,1.06-1.06-.06-4.68,10.7-.71,2.11.49,5.52,2.68,7.6,3.79,3.62,6.27,5.38,6.84,9.14l-6.5,3.74c-4.67,2.38-3.82,2.13,0,18,.71,2.93,3.06,5.67,5.25,6.11,5.62,1.14,6.54.64,9.52,6.94,1.09,2.32,1.1,4.64,0,5.73l-2.53,2.55c-1.35,1.37-.94,4.61.92,7.25,13,18.41,9.86,15.24,19,10.66,1.28.48,2,1.33,3.22,2.49,3.52,3.26,3,6.74,3,11.24a9.21,9.21,0,0,0,4.16,7.21l9.84,5.68c2.67,1.54,2.63.05,13-5.52l2.5,5.41c1.35,2.93,4,4.91,5.81,4.42,6.56-1.71,8.33-1.84,10.75-3.63l19-10.94c1.35-.76,1.63-3,.65-5.47l10.44-6c1.78-1.06,1,.1,4.67-10.7.71-2.11-.48-5.52-2.67-7.6C835.09,108.32,832.58,106.53,832,102.76ZM767.12,60.51c15.36,7,28.25,29.36,26.56,46.09C778.36,99.65,765.43,77.29,767.12,60.51Z"/><path class="cls-3" d="M817.5,124.18l-4.06-3.86a9.28,9.28,0,0,1-2.87-6.33v-1.43c0-2.14,1.13-3.36,2.87-3l4.06.82c2.18.44,3.38-1.58,2.67-4.52l-3-12.55c-.71-2.94-3.06-5.68-5.25-6.12l-4.09-.82c-1.73-.36-3.64-2.19-4.69-4.52-.24-.53-.48-1.06-.73-1.59-1.1-2.32-1.11-4.64,0-5.73L804.86,72c1.35-1.37.94-4.61-.92-7.24l-8-11.27c-1.86-2.64-4.46-3.66-5.81-2.3l-2.51,2.54c-1.07,1.08-3,.69-4.7-1l-1.2-1.14a9.32,9.32,0,0,1-3-6.31V40.34a9.18,9.18,0,0,0-4.16-7.21l-9.84-5.68c-2.3-1.33-4.16-.25-4.16,2.4v4.94c0,2.11-1.2,3.29-3,2.89-.4-.09-.8-.18-1.2-.25-1.73-.33-3.63-2.12-4.7-4.44l-2.51-5.44c-1.35-2.92-3.95-4.9-5.81-4.42l-8,2.08c-1.86.49-2.27,3.26-.92,6.19l2.53,5.47c1.07,2.33,1.06,4.64,0,5.69-.25.24-.5.49-.74.75-1.05,1.12-3,.75-4.69-.91l-4.09-3.89c-2.19-2.09-4.54-2.06-5.25.05l-3,9c-.71,2.11.49,5.52,2.68,7.6l4,3.86a9.26,9.26,0,0,1,2.87,6.33v1.42c0,2.14-1.13,3.36-2.87,3L722,69c-2.19-.44-3.39,1.58-2.68,4.51l3,12.56c.71,2.93,3.06,5.67,5.25,6.11l4.09.83c1.74.35,3.64,2.18,4.69,4.52.24.53.49,1.06.74,1.59,1.09,2.32,1.1,4.64,0,5.73l-2.53,2.55c-1.35,1.37-.94,4.61.92,7.25l8,11.27c1.86,2.63,4.46,3.66,5.81,2.29l2.51-2.54c1.07-1.08,3-.68,4.7,1l1.2,1.15a9.27,9.27,0,0,1,3,6.3v4.94a9.21,9.21,0,0,0,4.16,7.21l9.84,5.68c2.3,1.32,4.16.25,4.16-2.41V144.6c0-2.12,1.2-3.3,3-2.9.4.1.8.18,1.2.25,1.73.33,3.63,2.13,4.7,4.45l2.51,5.43c1.35,2.93,4,4.91,5.81,4.42l8-2.08c1.86-.49,2.27-3.25.92-6.18l-2.53-5.48c-1.07-2.32-1.06-4.63,0-5.69.25-.24.49-.49.73-.74,1-1.12,2.95-.75,4.69.9l4.09,3.9c2.19,2.08,4.54,2.06,5.25-.06l3-9C820.88,129.66,819.68,126.26,817.5,124.18Zm-47.78-6.65c-13.31-7.69-24.11-26.38-24.11-41.76s10.8-21.6,24.11-13.92,24.11,26.39,24.11,41.76S783,125.22,769.72,117.53Z"/><path class="cls-4" d="M210.15,722.33c38,21.95,38,57.54,0,79.49s-99.66,21.95-137.68,0-38-57.54,0-79.48S172.13,700.38,210.15,722.33Z"/><polygon class="cls-5" points="186.2 740.46 53.88 740.46 37.94 580.43 202.15 580.43 186.2 740.46"/><ellipse class="cls-5" cx="120.04" cy="741.83" rx="66.03" ry="38.12"/><ellipse class="cls-6" cx="120.04" cy="580.43" rx="82.23" ry="47.5"/><ellipse class="cls-2" cx="120.04" cy="580.43" rx="82.23" ry="47.5"/><path class="cls-7" d="M91,445.81s-75.94,9.79-88.88-42.1S39.38,337,33.37,307.6,3.05,250.18,22.63,218.86s55.16-40.54,59.5-51.38,5.27-38.15,13.64-50.31,11.43-47.6,39.35-68.57S183.7,30.93,195.77,0c0,0,24.26,23.37,29.52,36.1s-3.15,44.7-23.79,60.68-40.14,65.27-29.65,87.86,21.45,29.47,34.48,39.72,31.34,27.13,7.94,57.9-23,39.51-8.6,61.74,17.62,47.71-40.32,76.73C103.87,451.52,91,445.81,91,445.81Z"/><path class="cls-8" d="M117.7,573.59a3,3,0,0,1-2.85-2.12C94.75,503.69,85.72,434.65,88,366.27a627.35,627.35,0,0,1,27-161.71C142.33,115,181,60.88,181.39,60.34a3,3,0,0,1,4.81,3.48c-.38.53-38.57,54-65.59,142.71-24.92,81.82-45.16,211.26-.07,363.25a3,3,0,0,1-2,3.69A3,3,0,0,1,117.7,573.59Z"/><path class="cls-8" d="M91.37,360.55a3,3,0,0,1-2.31-4.83l99.88-124.08a3,3,0,1,1,4.62,3.72L93.68,359.44A3,3,0,0,1,91.37,360.55Z"/><path class="cls-8" d="M92.29,345.24a3,3,0,0,1-1.61-.47c-1.46-.95-2.27-1.47-15.22-59.6C69.19,257,63.09,228.64,63,228.36a3,3,0,1,1,5.8-1.25C78,269.93,92.44,335,94.73,340.59a3,3,0,0,1,0,3.3A2.94,2.94,0,0,1,92.29,345.24Zm1.61-5.46h0Z"/><path class="cls-8" d="M150,125.14a3.29,3.29,0,0,1-.54,0,3,3,0,0,1-2.38-3.46l10-53.85a3,3,0,0,1,5.84,1.08l-10,53.85A3,3,0,0,1,150,125.14Z"/><path class="cls-9" d="M140.65,493.55s-45-17.1-36.75-49.7,40.42-25.89,45.82-44,.25-40.81,20.39-52.35,42.59-6.1,48.21-10.81,14.24-19.58,22.49-23.83,20.46-23,42.15-26.31,32.16,4.62,48-8.93c0,0,6.51,20.14,5.65,28.76s-15,23.83-31.19,26.56-41.61,24.25-42.5,39.88,3.14,22.69,7.32,32.24,9.31,24.33-12.79,34.43S233,454.59,234.39,471.17s-4.4,31.66-45.11,30.54C146.07,500.53,140.65,493.55,140.65,493.55Z"/><path class="cls-8" d="M118.4,572.49a1.64,1.64,0,0,1-.38,0,1.86,1.86,0,0,1-1.45-2.2C136.89,471.68,187,405.32,225.53,367c41.73-41.54,79.21-60,79.58-60.21a1.87,1.87,0,1,1,1.63,3.36c-.36.18-37.39,18.46-78.69,59.6C190,407.7,140.34,473.41,120.22,571A1.87,1.87,0,0,1,118.4,572.49Z"/><path class="cls-8" d="M167,446.64a1.86,1.86,0,0,1-.73-3.58L258.46,404a1.87,1.87,0,0,1,1.45,3.44l-92.15,39.1A1.91,1.91,0,0,1,167,446.64Z"/><path class="cls-8" d="M172.08,438.43a1.84,1.84,0,0,1-1.63-1c-.46-.84-1.1-2,19.22-72.7a1.87,1.87,0,1,1,3.59,1c-7.61,26.46-18.94,66.79-19.33,70.56a1.85,1.85,0,0,1-1,1.84A1.8,1.8,0,0,1,172.08,438.43Zm1.63-2.76Z"/><path class="cls-8" d="M269.36,333.6a1.87,1.87,0,0,1-1.46-3l21.5-26.88a1.86,1.86,0,1,1,2.91,2.33l-21.5,26.88A1.85,1.85,0,0,1,269.36,333.6Z"/><path class="cls-10" d="M90.08,531.28s-12.6,8.56-24.74,5.6S30.57,527.5,33.89,505.7s5.83-25.85,1.27-32.72-12.79-12-13.52-24.31,8.57-16.8,2.42-28.74-9.74-13.2-10-19.32c-.27-7-3.73-19.25,2.11-38.25,0,0,4.31-16.29,12.8-16.35s13.67,16.16,16.9,19.9S53.75,378.76,57,381s5.82,13.34,4.66,20.44,3.37,16.14,21.08,25,18.25,20.66,14.24,33.29c-5.17,16.3,18.79,14.43,17.54,35.07C114.47,494.82,117.57,520.42,90.08,531.28Z"/><path class="cls-8" d="M118.36,571.8a1.16,1.16,0,0,1-.93-.45c-.75-1-75.42-96.63-88.45-193.19a1.19,1.19,0,0,1,1-1.33,1.18,1.18,0,0,1,1.33,1c12.94,95.92,87.21,191.09,88,192a1.17,1.17,0,0,1-.92,1.91Z"/><path class="cls-8" d="M66.9,489.09a.85.85,0,0,1-.23,0,1.17,1.17,0,0,1-.93-1.38l10.92-54.74a1.18,1.18,0,0,1,1.39-.92,1.19,1.19,0,0,1,.93,1.39L68.05,488.14A1.18,1.18,0,0,1,66.9,489.09Z"/><path class="cls-8" d="M51.48,455.36a1.18,1.18,0,0,1-.78-.29c-6.07-5.34-16.93-13.79-20.25-13.79h0a1.18,1.18,0,0,1,0-2.36h0c5.31,0,20.14,12.9,21.82,14.38a1.18,1.18,0,0,1-.78,2.06Z"/><path class="cls-8" d="M37.58,414.91l-.24,0a1.18,1.18,0,0,1-.92-1.39l5.19-25.75a1.18,1.18,0,1,1,2.32.47L38.73,414A1.18,1.18,0,0,1,37.58,414.91Z"/><path class="cls-8" d="M85.84,523.44a1.12,1.12,0,0,1-.6-.17l-39-23.54a1.18,1.18,0,1,1,1.22-2l39,23.54a1.18,1.18,0,0,1-.62,2.19Z"/><ellipse class="cls-11" cx="273.89" cy="1410.35" rx="53.92" ry="31.13"/><path class="cls-12" d="M267.07,1392s-2.71,9.75-12.2,19.64l-8.33-1.91v-6.86Z"/><path class="cls-13" d="M267.07,1392a3.29,3.29,0,0,0-.28-3.28,2.49,2.49,0,0,0-2.54-1.13c-2.87.4-16.2,7.33-16.2,7.33s-4,11.07.92,12.52S259.12,1409,267.07,1392Z"/><path class="cls-12" d="M302.63,1411.71s2.58,2.52-.78,5.11-23.93,6.4-23.93,6.4l-5.62-3.75.29-15.48Z"/><path class="cls-13" d="M272.59,1405.6c3.46-3.17,10.12-5.84,13.93-2.52,6.69,5.82,15.63,4.43,16.49,9.86.53,3.35-14.86,6.21-23.57,6.21h-.33a6.32,6.32,0,0,1-6.24-6.1Z"/><path class="cls-14" d="M245.4,1089.43l1.13,132.65a5.38,5.38,0,0,1-10.74.6l-13.54-132a11.61,11.61,0,1,1,23.09-2.37A9.77,9.77,0,0,1,245.4,1089.43Z"/><path class="cls-15" d="M224.11,1108.75l.26,2.76s6.07,5.9,21.22-1.35l-.06-5.15Z"/><path class="cls-16" d="M248.34,1105.21c-6.65,7.17-23.56,7.85-28.4,1.45l-1.44-36.59c-.05-6.91,6.25-12.57,14.08-12.63,8.49-.07,15.43,6,15.49,13.47Z"/><polygon class="cls-14" points="246.45 1218.06 246.96 1232.3 241.36 1235.78 237.17 1237.63 233.09 1239.17 235.32 1217.98 240.38 1216.11 246.45 1218.06"/><path class="cls-14" d="M244.45,1244.38a1.92,1.92,0,0,1-.95-.24,2,2,0,0,1-.81-2.7c1.58-2.94.46-9.42-.05-11.46a2,2,0,1,1,3.87-1c.25,1,2.29,9.51-.3,14.33A2,2,0,0,1,244.45,1244.38Z"/><path class="cls-14" d="M249,1235.68a2,2,0,0,1-1.75-1,67.08,67.08,0,0,1-4.4-9.88,2,2,0,1,1,3.79-1.27,64.11,64.11,0,0,0,4.12,9.24,2,2,0,0,1-.8,2.71A2,2,0,0,1,249,1235.68Z"/><path class="cls-14" d="M240.16,1245.82a2,2,0,0,1-1.17-.38,2,2,0,0,1-.46-2.79c1.93-2.69,1.65-9.09,1.38-11.33a2,2,0,1,1,4-.49c.12,1,1.08,9.72-2.1,14.15A2,2,0,0,1,240.16,1245.82Z"/><path class="cls-14" d="M236.89,1243.78a2,2,0,0,1-1.17-.37,2,2,0,0,1-.45-2.79c1.92-2.69,1.63-9.25,1.37-11.34a2,2,0,0,1,1.74-2.23,2,2,0,0,1,2.23,1.74c.12,1,1.08,9.73-2.1,14.16A2,2,0,0,1,236.89,1243.78Z"/><path class="cls-14" d="M233.64,1241.14a2,2,0,0,1-1.39-3.44c2.28-2.22,2.57-7.72,2.5-9.48a2,2,0,0,1,1.91-2.08,2,2,0,0,1,2.08,1.91c0,.87.26,8.66-3.71,12.52A2,2,0,0,1,233.64,1241.14Z"/><path class="cls-17" d="M273.55,1192.49c-.33,8.71-.78,17.43-1.2,26.14s-.82,17.43-1.47,26.15l-4.06,52.31-8.28,104.62a6.34,6.34,0,0,1-12.62.18l-11.36-104.33-5.6-52.17c-.91-8.69-1.55-17.39-2.23-26.09s-1.39-17.39-2-26.09a24.44,24.44,0,1,1,48.76-3.31A24.91,24.91,0,0,1,273.55,1192.49Z"/><path class="cls-18" d="M295.22,1195.64c1.31,8.69,2,17.39,2.52,26.09.27,4.35.41,8.7.55,13a95.79,95.79,0,0,1-.8,13.08c-1.5,17.43-2.77,34.87-4.17,52.31L285,1404.79a6.33,6.33,0,0,1-12.61.18l-11.36-104.33c-1.91-17.39-3.69-34.78-5.71-52.16a97.36,97.36,0,0,1-1.18-13c0-4.35,0-8.71.17-13.06.25-8.72.69-17.43,1.74-26.15a19.75,19.75,0,0,1,39.13-.58Z"/><path class="cls-18" d="M254.14,1231.07,226.7,1219.3s-5.07-29.86.17-37.3l32.52,19.17Z"/><path class="cls-19" d="M285.13,1078.65l-48.93-20.53a4.52,4.52,0,0,0-6.18,3.32c-2.73,14.47-8.43,54.74,5.87,83.2,0,0-4.41,27.51-9.8,36.56,0,0,30,32.28,71.93,25.06l-12.28-68.82s19.37-22.76,2.67-38.83Z"/><path class="cls-14" d="M297.89,1102.73l26.74,37.54-12.21-.11,44-44.29a5.38,5.38,0,0,1,8,7.22l-39.8,48.06a7.8,7.8,0,0,1-11,1c-.12-.1-.23-.19-.33-.29l-.91-.85-33.68-31.46a12.85,12.85,0,1,1,17.55-18.78A13.91,13.91,0,0,1,297.89,1102.73Z"/><path class="cls-15" d="M292.17,1131.26l1.67,2.21s8.27,1.81,17.32-12.34l-2.77-4.35Z"/><path class="cls-20" d="M310.88,1115.47c-1.87,9.6-15.87,19.09-23.36,16.22L267,1101.37c-3.7-5.85-1.33-14,5.29-18.17,7.18-4.54,16.25-3.07,20.27,3.28Z"/><polygon class="cls-14" points="363.8 1103.74 374.55 1094 373.03 1087.59 371.37 1083.32 369.57 1079.35 356.2 1095.94 358.47 1100.84 363.8 1103.74"/><path class="cls-14" d="M370.88,1096.31a2,2,0,0,1-1-3.71c1.93-1.17,7.16-4.89,8.11-8.09a2,2,0,0,1,3.84,1.14c-1.57,5.25-9,9.86-9.89,10.37A1.94,1.94,0,0,1,370.88,1096.31Z"/><path class="cls-14" d="M367.18,1100.2a2,2,0,0,1-.89-3.79,68.57,68.57,0,0,1,10.09-3.9,2,2,0,0,1,1.13,3.84,65.47,65.47,0,0,0-9.43,3.64A2,2,0,0,1,367.18,1100.2Z"/><path class="cls-14" d="M370.09,1093.29a2,2,0,0,1-1.23-3.57c1.77-1.39,6.49-5.73,7-9a2,2,0,0,1,3.94.64c-.87,5.38-7.72,10.9-8.49,11.51A2,2,0,0,1,370.09,1093.29Z"/><path class="cls-14" d="M366.34,1092.43a2,2,0,0,1-1.57-.76,2,2,0,0,1,.33-2.81c1.78-1.4,6.5-5.73,7-9a2,2,0,0,1,2.29-1.66,2,2,0,0,1,1.65,2.29c-.87,5.39-7.72,10.91-8.5,11.52A2,2,0,0,1,366.34,1092.43Z"/><path class="cls-14" d="M364.37,1091.75a2,2,0,0,1-1.47-.64,2,2,0,0,1,.12-2.83c1.38-1.28,5-5.31,4.91-8.49a2,2,0,0,1,2-2h0a2,2,0,0,1,2,2c.09,5.53-5.56,10.9-6.2,11.49A2,2,0,0,1,364.37,1091.75Z"/><path class="cls-14" d="M266.24,1048.63l3.18,22.59s-3.34,8.11-13.05,4.2-7.58-9.88-7.58-9.88l1-13.53Z"/><path class="cls-21" d="M267.39,1056.8s-2.56,5.22-18.23,3.27l.67-8.74Z"/><path class="cls-14" d="M276.07,1022.7c3.67,18.57,4.76,31.8,0,32.75-7.39,1.46-32.86,3.33-36.93-17.18-2.87-14.51.68-33.08,10.92-35.11C267.49,999.71,273.2,1008.2,276.07,1022.7Z"/><path class="cls-22" d="M274.86,1019.82s-6.87,1.24-6.28,9.65c.67,9.44,2.05,18,7.86,21.63,3.46,2.16,9.83,7.78,9.54,17.26s-6.38,20.8-4.34,25.24,10.39,16,8.5,26.72c-1.79,10.1-6.05,17-19.16,19.28a11.52,11.52,0,0,1-5.09-.23c-7.42-2-30.07-8.56-36.76-15-5.54-5.32-13.9-9.11-12-23.49,0,0-9.06-14.17-9.1-21.75s.27-19.89,11.76-24.81c0,0-6.63-10.18-.73-24s11.65-16.32,13.14-18.21,2.3-14.68,22.94-17.41c0,0,7.48-.25,11.54,3.35a3.21,3.21,0,0,0,4.21-.55s1.36,3.25.27,4.83a24.27,24.27,0,0,0,3.06-1.49,4.39,4.39,0,0,1,.12,2.5S283.09,1014.71,274.86,1019.82Z"/><path class="cls-23" d="M222.07,1051.15a23.47,23.47,0,0,1-1.89-9.62l65.83,32.3a51.51,51.51,0,0,1-3,9.34l-64.57-30.52A18.13,18.13,0,0,1,222.07,1051.15Z"/><path class="cls-23" d="M232.57,1011.84a2.1,2.1,0,0,0,.28-.48c7.09,2.09,24.4,7.53,37.47,11.66a9.11,9.11,0,0,0-1.38,4.65l-40.16-12.37C230.59,1013.52,232,1012.63,232.57,1011.84Z"/><path class="cls-24" d="M259.75,955.85c3.08,1.78,3.08,4.66,0,6.44a12.37,12.37,0,0,1-11.15,0c-3.08-1.78-3.08-4.66,0-6.44A12.31,12.31,0,0,1,259.75,955.85Z"/><path class="cls-25" d="M271.46,899.31c9.54,5.51,9.54,14.45,0,20s-25,5.51-34.57,0-9.54-14.45,0-20S261.91,893.8,271.46,899.31Z"/><path class="cls-22" d="M271.46,925.79c9.54,5.51,9.54,14.44,0,20s-25,5.52-34.57,0-9.54-14.44,0-20S261.91,920.28,271.46,925.79Z"/><path class="cls-22" d="M266.29,942.18c6.69,3.86,6.69,10.13,0,14s-17.54,3.86-24.23,0-6.69-10.13,0-14S259.6,938.32,266.29,942.18Z"/><rect class="cls-22" x="229.74" y="910" width="48.85" height="25.06"/><polygon class="cls-22" points="274 944.02 270.82 951.53 237.68 951.53 234.35 944.02 274 944.02"/><path class="cls-24" d="M271.62,926.08c-9.63,6.43-25.23,6.43-34.86,0-4-2.68-6.36-6.06-7-9.56-.93,4.88,1.42,10,7,13.72,9.63,6.43,25.23,6.43,34.86,0,5.61-3.74,7.89-8.84,7-13.72C277.92,920,275.64,923.4,271.62,926.08Z"/><path class="cls-24" d="M271.62,934c-9.63,6.43-25.23,6.43-34.86,0-4-2.68-6.36-6.06-7-9.56-.93,4.88,1.42,10,7,13.72,9.63,6.43,25.23,6.43,34.86,0,5.61-3.74,7.89-8.84,7-13.72C277.92,927.94,275.64,931.31,271.62,934Z"/><polygon class="cls-24" points="262.03 958.68 263.83 957.35 244.52 957.35 246.32 958.68 262.03 958.68"/><path class="cls-26" d="M254.17,775.41A56.34,56.34,0,0,0,219,875.77a39.45,39.45,0,0,0,4.26,12.83l6.5,21.4h0c.29,3.37,2.67,6.69,7.12,9.27,9.55,5.51,25,5.51,34.57,0,4.45-2.58,6.83-5.9,7.12-9.27h0l6.5-21.4h0a39.47,39.47,0,0,0,4.26-12.82,56.35,56.35,0,0,0-35.17-100.37Z"/><polygon class="cls-3" points="1391.66 1505.74 299.04 874.91 299.04 98.96 1391.66 729.78 1391.66 1505.74"/><polygon class="cls-2" points="845.35 1145.72 837.73 1141.32 837.73 453.95 845.35 458.35 845.35 1145.72"/><polygon class="cls-2" points="568.39 985.81 560.77 981.41 560.77 294.05 568.39 298.45 568.39 985.81"/><polygon class="cls-2" points="1126.66 1308.13 1134.28 1312.53 1134.28 625.17 1126.66 620.77 1126.66 1308.13"/><polygon class="cls-2" points="1158.22 698.05 1158.22 706.85 1374.24 831.57 1374.24 822.77 1158.22 698.05"/><path class="cls-2" d="M1158.22,655.33h0c0,9,5.49,19.5,12.26,23.41L1362,789.31c6.77,3.9,12.25-.24,12.25-9.26h0c0-9-5.48-19.51-12.25-23.41L1170.48,646.06C1163.71,642.16,1158.22,646.3,1158.22,655.33Z"/><path class="cls-2" d="M880.17,494.79h0c0,9,5.49,19.51,12.26,23.41l191.51,110.57c6.77,3.91,12.25-.24,12.25-9.26h0c0-9-5.48-19.5-12.25-23.41L892.43,485.53C885.66,481.62,880.17,485.77,880.17,494.79Z"/><path class="cls-2" d="M592.87,328.92h0c0,9,5.49,19.5,12.26,23.41L796.64,462.9c6.77,3.91,12.25-.24,12.25-9.26h0c0-9-5.48-19.5-12.25-23.41L605.13,319.66C598.36,315.75,592.87,319.9,592.87,328.92Z"/><path class="cls-2" d="M320.81,171.84h0c0,9,5.48,19.51,12.25,23.41L524.58,305.82c6.76,3.91,12.25-.24,12.25-9.26h0c0-9-5.49-19.5-12.25-23.41L333.06,162.58C326.29,158.67,320.81,162.82,320.81,171.84Z"/><polygon class="cls-2" points="880.17 537.52 880.17 546.31 1096.19 671.03 1096.19 662.24 880.17 537.52"/><polygon class="cls-2" points="592.87 371.64 592.87 380.44 808.89 505.16 808.89 496.36 592.87 371.64"/><polygon class="cls-2" points="320.81 214.57 320.81 223.36 536.83 348.08 536.83 339.29 320.81 214.57"/><polygon class="cls-18" points="511.8 502.65 333.32 399.6 333.32 265.15 511.8 368.19 511.8 502.65"/><polygon class="cls-15" points="497.65 395.83 347.47 309.13 347.47 297.82 497.65 384.52 497.65 395.83"/><polygon class="cls-15" points="497.65 422.85 347.47 336.14 347.47 324.84 497.65 411.54 497.65 422.85"/><polygon class="cls-15" points="497.65 449.87 347.47 363.16 347.47 351.85 497.65 438.56 497.65 449.87"/><polygon class="cls-15" points="422.56 433.53 347.47 390.18 347.47 378.87 422.56 422.22 422.56 433.53"/><polygon class="cls-18" points="1075.52 828.11 897.04 725.07 897.04 590.61 1075.52 693.65 1075.52 828.11"/><polygon class="cls-15" points="1061.37 721.3 911.19 634.59 911.19 623.28 1061.37 709.99 1061.37 721.3"/><polygon class="cls-15" points="1061.37 748.32 911.19 661.61 911.19 650.3 1061.37 737 1061.37 748.32"/><polygon class="cls-15" points="1061.37 775.33 911.19 688.63 911.19 677.32 1061.37 764.02 1061.37 775.33"/><polygon class="cls-15" points="986.28 759 911.19 715.64 911.19 704.33 986.28 747.69 986.28 759"/><polygon class="cls-27" points="509.62 677.31 331.15 574.27 331.15 439.81 509.62 542.86 509.62 677.31"/><polygon class="cls-15" points="495.47 570.5 345.29 483.8 345.29 472.49 495.47 559.19 495.47 570.5"/><polygon class="cls-15" points="495.47 597.52 345.29 510.81 345.29 499.5 495.47 586.21 495.47 597.52"/><polygon class="cls-15" points="495.47 624.54 345.29 537.83 345.29 526.52 495.47 613.23 495.47 624.54"/><polygon class="cls-15" points="420.38 608.2 345.29 564.85 345.29 553.54 420.38 596.89 420.38 608.2"/><polygon class="cls-27" points="789.85 663.18 611.37 560.14 611.37 425.68 789.85 528.72 789.85 663.18"/><polygon class="cls-15" points="775.7 556.37 625.52 469.66 625.52 458.35 775.7 545.06 775.7 556.37"/><polygon class="cls-15" points="775.7 583.38 625.52 496.68 625.52 485.37 775.7 572.08 775.7 583.38"/><polygon class="cls-15" points="775.7 610.4 625.52 523.7 625.52 512.38 775.7 599.09 775.7 610.4"/><polygon class="cls-15" points="700.61 594.07 625.52 550.71 625.52 539.4 700.61 582.75 700.61 594.07"/><polygon class="cls-27" points="1075.52 1179.96 897.04 1076.92 897.04 942.46 1075.52 1045.5 1075.52 1179.96"/><polygon class="cls-15" points="1061.37 1073.15 911.19 986.44 911.19 975.13 1061.37 1061.84 1061.37 1073.15"/><polygon class="cls-15" points="1061.37 1100.16 911.19 1013.46 911.19 1002.15 1061.37 1088.86 1061.37 1100.16"/><polygon class="cls-15" points="1061.37 1127.18 911.19 1040.47 911.19 1029.17 1061.37 1115.87 1061.37 1127.18"/><polygon class="cls-15" points="986.28 1110.85 911.19 1067.49 911.19 1056.18 986.28 1099.54 986.28 1110.85"/><polygon class="cls-2" points="509.62 851.98 331.15 748.94 331.15 614.48 509.62 717.53 509.62 851.98"/><polygon class="cls-15" points="495.47 745.17 345.29 658.47 345.29 647.15 495.47 733.86 495.47 745.17"/><polygon class="cls-15" points="495.47 772.19 345.29 685.48 345.29 674.17 495.47 760.88 495.47 772.19"/><polygon class="cls-15" points="495.47 799.21 345.29 712.5 345.29 701.19 495.47 787.9 495.47 799.21"/><polygon class="cls-15" points="420.38 782.87 345.29 739.52 345.29 728.21 420.38 771.56 420.38 782.87"/><polygon class="cls-2" points="1355.2 1178.08 1176.72 1075.03 1176.72 940.58 1355.2 1043.62 1355.2 1178.08"/><polygon class="cls-15" points="1341.05 1071.26 1190.87 984.56 1190.87 973.25 1341.05 1059.95 1341.05 1071.26"/><polygon class="cls-15" points="1341.05 1098.28 1190.87 1011.57 1190.87 1000.26 1341.05 1086.97 1341.05 1098.28"/><polygon class="cls-15" points="1341.05 1125.3 1190.87 1038.59 1190.87 1027.28 1341.05 1113.99 1341.05 1125.3"/><polygon class="cls-15" points="1265.96 1108.96 1190.87 1065.61 1190.87 1054.3 1265.96 1097.65 1265.96 1108.96"/><polygon class="cls-2" points="789.85 839.1 611.37 736.06 611.37 601.6 789.85 704.65 789.85 839.1"/><polygon class="cls-15" points="775.7 732.29 625.52 645.59 625.52 634.28 775.7 720.98 775.7 732.29"/><polygon class="cls-15" points="775.7 759.31 625.52 672.6 625.52 661.29 775.7 748 775.7 759.31"/><polygon class="cls-15" points="775.7 786.33 625.52 699.62 625.52 688.31 775.7 775.02 775.7 786.33"/><polygon class="cls-15" points="700.61 769.99 625.52 726.64 625.52 715.33 700.61 758.68 700.61 769.99"/><polygon class="cls-28" points="1351.93 987.7 1173.46 884.66 1173.46 750.2 1351.93 853.24 1351.93 987.7"/><polygon class="cls-15" points="1337.24 881.83 1187.06 795.12 1187.06 783.81 1337.24 870.52 1337.24 881.83"/><polygon class="cls-15" points="1337.24 908.85 1187.06 822.14 1187.06 810.83 1337.24 897.54 1337.24 908.85"/><polygon class="cls-15" points="1337.24 935.86 1187.06 849.16 1187.06 837.85 1337.24 924.55 1337.24 935.86"/><polygon class="cls-15" points="1262.15 919.53 1187.06 876.17 1187.06 864.87 1262.15 908.22 1262.15 919.53"/><polygon class="cls-28" points="1075.52 1004.03 897.04 900.99 897.04 766.53 1075.52 869.58 1075.52 1004.03"/><polygon class="cls-15" points="1060.83 898.16 910.65 811.46 910.65 800.15 1060.83 886.86 1060.83 898.16"/><polygon class="cls-15" points="1060.83 925.18 910.65 838.48 910.65 827.17 1060.83 913.87 1060.83 925.18"/><polygon class="cls-15" points="1060.83 952.2 910.65 865.49 910.65 854.18 1060.83 940.89 1060.83 952.2"/><polygon class="cls-15" points="985.74 935.86 910.65 892.51 910.65 881.2 985.74 924.55 985.74 935.86"/><polygon class="cls-29" points="1458.1 1467.38 1391.66 1505.74 1391.66 729.78 1458.1 691.42 1458.1 1467.38"/><polygon class="cls-2" points="299.35 99.14 365.8 60.78 1458.1 691.42 1391.66 729.78 299.35 99.14"/><polygon class="cls-27" points="600.77 868.72 582 878.13 564.47 866.58 583.24 857.17 600.77 868.72"/><polygon class="cls-27" points="553.22 1365.19 535.69 1353.64 564.47 866.58 582 878.13 553.22 1365.19"/><polygon class="cls-30" points="571.99 1355.79 553.22 1365.19 582 878.13 600.77 868.72 571.99 1355.79"/><polygon class="cls-27" points="729.1 934.91 710.33 944.32 692.8 932.77 711.57 923.36 729.1 934.91"/><polygon class="cls-27" points="681.86 1426.36 664.32 1414.81 692.8 932.77 710.33 944.32 681.86 1426.36"/><polygon class="cls-30" points="700.62 1416.95 681.86 1426.36 710.33 944.32 729.1 934.91 700.62 1416.95"/><polygon class="cls-30" points="570.73 1068.87 571.97 1047.92 681.73 1120.24 680.49 1141.19 570.73 1068.87"/><polygon class="cls-27" points="571.97 1047.93 590.74 1038.53 700.49 1110.85 681.72 1120.25 571.97 1047.93"/><polygon class="cls-30" points="577.27 958.11 578.51 937.15 688.27 1009.47 687.03 1030.42 577.27 958.11"/><polygon class="cls-27" points="578.51 937.16 597.28 927.76 707.04 1000.08 688.27 1009.48 578.51 937.16"/><polygon class="cls-30" points="564.19 1179.57 565.43 1158.61 675.19 1230.93 673.95 1251.89 564.19 1179.57"/><polygon class="cls-27" points="565.43 1158.63 584.2 1149.22 693.96 1221.54 675.18 1230.95 565.43 1158.63"/><polygon class="cls-30" points="557.96 1285.03 559.2 1264.08 668.96 1336.39 667.72 1357.35 557.96 1285.03"/><polygon class="cls-27" points="559.2 1264.09 577.97 1254.68 687.72 1327.01 668.96 1336.41 559.2 1264.09"/><path class="cls-14" d="M623.29,900.41l-1.74,29.38-.87,14.7-.06.92,0,.45v.22a6.54,6.54,0,0,0-4.46-5.73,6.2,6.2,0,0,0-4.75.4,5.58,5.58,0,0,0-1,.66l-.07.06.1-.07.19-.12L611,941l1.54-1,49.13-32.44a6.65,6.65,0,0,1,8,10.58L625.16,956.7l-1.39,1.21-.35.3-.17.15-.09.08-.25.19a15.11,15.11,0,0,1-2.58,1.58,15.49,15.49,0,0,1-11.9.67,15.79,15.79,0,0,1-9-8.12,16,16,0,0,1-1.51-6.06l-.14-2.07-1-14.69-2.1-29.36a14.35,14.35,0,0,1,28.62-2A16.68,16.68,0,0,1,623.29,900.41Z"/><path class="cls-15" d="M596.07,918.89l.23,2.76s8.72,7.38,25.59.06l.37-5.16Z"/><path class="cls-31" d="M624.22,916.19c-7.56,7.58-26.09,7.64-31.13.45L593,876.55c.22-7.58,7.34-13.52,15.91-13.27,9.3.27,16.65,7.15,16.41,15.37Z"/><polygon class="cls-14" points="662.06 907.42 670.78 901.74 677.79 905.6 682.27 908.93 686.37 912.33 666.71 920.39 658.44 918.24 662.06 907.42"/><path class="cls-14" d="M669.2,908.41a2.4,2.4,0,0,1-1.63-4.09c.83-.83,8.26-8.07,14.81-8.18a2.38,2.38,0,0,1,2.44,2.36,2.41,2.41,0,0,1-2.36,2.44c-3.92.06-9.63,4.91-11.5,6.77A2.41,2.41,0,0,1,669.2,908.41Z"/><path class="cls-14" d="M663.67,911.44a2.34,2.34,0,0,1-1.48-.57,2.39,2.39,0,0,1-.27-3.38,75.36,75.36,0,0,0,6.8-9.79,2.4,2.4,0,1,1,4.15,2.41,79.68,79.68,0,0,1-7.3,10.49A2.39,2.39,0,0,1,663.67,911.44Z"/><path class="cls-14" d="M672.47,910.31a2.4,2.4,0,0,1-1.39-4.3c.92-.71,9.24-6.92,15.73-6.17a2.4,2.4,0,0,1-.54,4.77c-3.91-.45-10.33,3.71-12.27,5.21A2.37,2.37,0,0,1,672.47,910.31Z"/><path class="cls-14" d="M672.43,915a2.4,2.4,0,0,1-1.39-4.3c.93-.71,9.24-6.92,15.74-6.17a2.4,2.4,0,0,1-.55,4.77c-3.89-.45-10.18,3.61-12.27,5.21A2.37,2.37,0,0,1,672.43,915Z"/><path class="cls-14" d="M672.68,917.48a2.4,2.4,0,0,1-1.23-4.41c.87-.56,8.68-5.42,15.08-3.5a2.4,2.4,0,0,1-1.38,4.6c-3.66-1.1-9.26,1.74-11.1,2.93A2.43,2.43,0,0,1,672.68,917.48Z"/><path class="cls-12" d="M622.7,1161.29s-4.05,13.1-17.27,26.12l-11.22-2.91.27-9.28Z"/><path class="cls-13" d="M622.7,1161.29a4.48,4.48,0,0,0-.25-4.45,3.39,3.39,0,0,0-3.39-1.63c-3.9.43-22.23,9.3-22.23,9.3s-5.77,14.84.76,17S611.28,1184,622.7,1161.29Z"/><path class="cls-12" d="M659.41,1200.74s2.91,3-1.07,5.89-27.93,6.62-27.93,6.62l-6.39-4.53.85-17.92Z"/><path class="cls-13" d="M624.82,1192.66c4.12-3.55,11.92-6.43,16.22-2.45,7.55,7,18,5.64,18.77,12,.51,3.9-17.41,6.7-27.5,6.41h-.39a7.33,7.33,0,0,1-7-7.26Z"/><path class="cls-32" d="M636.12,966.47c-1.62,17.16-3.79,34.28-6,51.41l-6.67,51.38-1.67,12.85c-.54,4.28-1,8.57-1.5,12.86l-3,25.72-6,51.46a8.31,8.31,0,0,1-16.56-.76l-1.3-51.92-.58-26c-.08-4.33-.21-8.66-.26-13l0-13-.08-51.91c0-17.3.06-34.61.63-51.89a21.54,21.54,0,0,1,43.05,1.43C636.19,965.58,636.16,966.06,636.12,966.47Z"/><path class="cls-33" d="M618,1033.6c0-1.08-25.74-18.5-25.74-18.5l-.35-33.69,40.06,25.1Z"/><path class="cls-33" d="M660.2,984.89c-1.15,17.19-2.84,34.37-4.54,51.55L650.4,1088l-1.32,12.89c-.42,4.3-.76,8.6-1.15,12.89l-2.24,25.8-4.64,51.61a8.31,8.31,0,0,1-16.58-.3L621.75,1139l-1.29-26c-.2-4.32-.45-8.65-.62-13l-.37-13L618,1035.22c-.44-17.3-.88-34.6-.78-51.89a21.54,21.54,0,1,1,43.07.25C660.25,984,660.23,984.48,660.2,984.89Z"/><path class="cls-34" d="M589,979.36s.72,11.69,36.92,28.1c30.79,14,37.52-.05,37.52-.05s5.11-78.68,1.39-95.58.56-11.93-7.69-17c0,0-46.45-37.77-55-29.45-10.15,9.91-12.49,50.89-7.32,76.79C593.06,963.29,590.32,976.5,589,979.36Z"/><polygon class="cls-15" points="636.72 909.98 633.38 944.25 637.34 948.41 642.11 969.18 653.41 976.56 654.64 933.66 649.82 892.73 636.72 909.98"/><path class="cls-14" d="M620.43,862.52l-3.71,20.55s2.46,8.46,12.58,5.61,8.66-9,8.66-9l.49-13.63Z"/><path class="cls-21" d="M620.23,863.6s1.13,8.46,17.88,11.93l.24-8.54Z"/><path class="cls-14" d="M653.26,836.38c.31,19-3.38,31.49-13.87,31.66s-27-6.4-27.31-27.42c-.24-14.87,8.07-27.06,18.57-27.23C648.5,813.09,653,821.51,653.26,836.38Z"/><path class="cls-14" d="M637,889.14c-4.76,2.57-12.35,2.35-17-.49s-4.48-7.21.28-9.78,12.35-2.35,16.95.49S641.75,886.57,637,889.14Z"/><path class="cls-22" d="M611.69,816.64c8.36-16.93,30.51-9.2,30.51-9.2l9.95,8.27a4.44,4.44,0,0,1-.8,7.35,49.36,49.36,0,0,1-8.06,3.08,9.41,9.41,0,0,0-6,5.54l-3.42,8.52L632.49,852l-.91,4.72a9.14,9.14,0,0,1-13.05,6.46C605.34,856.64,606.43,827.29,611.69,816.64Z"/><path class="cls-14" d="M640.12,842.3a6.6,6.6,0,1,1-6.7-6.49A6.6,6.6,0,0,1,640.12,842.3Z"/><polygon class="cls-18" points="725.46 838.51 725.46 913.86 660.21 876.19 660.21 800.84 725.46 838.51"/><polygon class="cls-35" points="660.2 800.84 725.46 838.51 734.99 833.01 669.73 795.33 660.2 800.84"/><polygon class="cls-36" points="725.47 838.51 725.47 913.86 734.99 908.34 734.99 832.99 725.47 838.51"/><polygon class="cls-18" points="679.88 887.54 688.53 915.58 699.46 898.85 679.88 887.54"/><polygon class="cls-36" points="688.53 915.58 708.66 904.16 699.46 898.85 688.53 915.58"/><polygon class="cls-37" points="706.42 852.2 700.74 855.56 712.07 867.4 706.42 866.66 700.74 870.01 706.42 870.76 706.42 871.54 717.04 872.7 717.04 876.67 722.72 873.32 722.72 869.26 706.42 852.2"/><polygon class="cls-37" points="699.53 842.62 693.86 845.97 697.12 847.86 687.25 869.25 681.58 872.61 686.14 875.24 691.81 871.89 704.09 845.25 699.53 842.62"/><polygon class="cls-37" points="684.93 859.14 684.93 854.25 679.25 848.04 678.8 847.98 674.26 843.34 679.25 843.97 679.25 848.04 684.93 844.68 684.93 839.8 668.63 838.02 662.95 841.38 668.63 842 668.63 842.08 673.64 847.33 668.58 846.7 679.25 857.61 679.25 862.49 684.93 859.14"/><path class="cls-38" d="M679.25,843.15V848l-10.67-1.34,10.67,10.91v4.88l-16.3-17v-4.06Z"/><path class="cls-38" d="M686.14,875.24l-4.56-2.63L693.86,846l4.56,2.64Z"/><path class="cls-38" d="M711.41,871.42l-10.67-11v-4.89l16.31,17.05v4.06l-16.31-1.77V870Z"/><path class="cls-14" d="M667.12,925.32l-1.76,27.29-.43,6.82-.22,3.41-.11,1.71-.06.85v.19c0-.21,0-.41-.07-.62a6.71,6.71,0,0,0-2.43-4.13,6.46,6.46,0,0,0-4.41-1.38,6.17,6.17,0,0,0-4,1.87,7.11,7.11,0,0,0-.7.86c-.17.28,0,0,.09-.06l.26-.33,1.07-1.34,34.27-42.62a6.66,6.66,0,0,1,10.91,7.57l-28,47-.88,1.47-.22.37a5.67,5.67,0,0,1-.41.63,14.81,14.81,0,0,1-1.83,2.13,15.45,15.45,0,0,1-10.22,4.36,15.77,15.77,0,0,1-10.67-3.67,15.94,15.94,0,0,1-5.54-10l-1.16-14.91-2.08-27.27a14.35,14.35,0,0,1,28.62-2.19A17,17,0,0,1,667.12,925.32Z"/><path class="cls-15" d="M639.91,943.8l.22,2.76s8.72,7.38,25.59.05l.38-5.16Z"/><path class="cls-34" d="M668.05,941.1c-7.56,7.58-26.09,7.64-31.13.45l-.11-40.09c.22-7.58,7.34-13.52,15.91-13.27,9.3.26,16.65,7.14,16.41,15.36Z"/><polygon class="cls-14" points="689.79 916.53 696.58 908.66 704.39 910.41 709.62 912.35 714.5 914.48 697.87 927.7 689.33 927.94 689.79 916.53"/><path class="cls-14" d="M696.25,915.57a2.39,2.39,0,0,1-2-3.55c.56-1,5.68-10,11.94-12a2.4,2.4,0,0,1,1.41,4.59c-3.74,1.15-7.88,7.4-9.15,9.71A2.39,2.39,0,0,1,696.25,915.57Z"/><path class="cls-14" d="M691.79,920a2.4,2.4,0,0,1-2.12-3.38,74.76,74.76,0,0,0,3.81-11.3,2.4,2.4,0,1,1,4.65,1.15,78.37,78.37,0,0,1-4.08,12.12A2.4,2.4,0,0,1,691.79,920Z"/><path class="cls-14" d="M699.92,916.49a2.4,2.4,0,0,1-1.86-3.82c.69-.94,6.93-9.21,13.39-10.31a2.4,2.4,0,1,1,.8,4.73c-3.86.65-8.88,6.44-10.33,8.42A2.39,2.39,0,0,1,699.92,916.49Z"/><path class="cls-14" d="M701.18,921a2.45,2.45,0,0,1-1.35-.47,2.4,2.4,0,0,1-.51-3.35c.69-.94,6.93-9.21,13.39-10.31a2.4,2.4,0,1,1,.81,4.73c-3.87.65-8.88,6.44-10.34,8.42A2.39,2.39,0,0,1,701.18,921Z"/><path class="cls-14" d="M702.12,923.31a2.4,2.4,0,0,1-1.74-4c.68-.78,6.83-7.61,13.51-7.55a2.37,2.37,0,0,1,2.38,2.42,2.41,2.41,0,0,1-2.42,2.37c-3.83,0-8.41,4.26-9.85,5.91A2.39,2.39,0,0,1,702.12,923.31Z"/><path class="cls-12" d="M1257.86,782.82l1.09,8.48a5.91,5.91,0,0,1-1.76,5c-4.4,4.24-14.65,13.43-22,14.37s-8.47-3-8.94-4.91,2-5.14,2-5.14Z"/><path class="cls-13" d="M1257.86,782.82s-17.79,26.34-29.61,23.35c-9.56-2.41,16.26-27.49,16.26-27.49Z"/><path class="cls-32" d="M1226.71,655.77l2-1,41.5-19.58c6.9-3.3,13.85-6.47,20.8-9.66s13.94-6.22,21-9.16c.62-.26,1.3-.51,2-.72A22.72,22.72,0,0,1,1327.63,659q-10.92,3.43-21.94,6.54c-7.37,2-14.72,4.1-22.12,6l-33.35,8.88,3.63,43.16,4.56,56.68a8.75,8.75,0,0,1-17.31,2.42L1229.9,727l-11-55.78A14.09,14.09,0,0,1,1226.71,655.77Z"/><path class="cls-14" d="M1249.37,635.65l22.7-32.87,5.35-64.58a17.68,17.68,0,0,1,.36-2.24,15.51,15.51,0,1,1,30.21,7l-15.17,65.09-.83,3.55-1.41,1.49-30.08,31.58a7.2,7.2,0,0,1-11.13-9.06Z"/><path class="cls-15" d="M1304.48,553.71l-1,2.88s-10.75,7.07-27.3-4l.48-6.41Z"/><path class="cls-39" d="M1274,545.56c6.59,9.51,26.29,13.13,33,6.44l7.79-42.63c1.22-8.1-5.22-15.78-14.38-17.16-10-1.49-19.08,4.42-20.4,13.21Z"/><path class="cls-12" d="M1308.27,791.48l2.51,8.18a6,6,0,0,1-.88,5.25c-3.61,4.92-12.16,15.71-19.2,17.88s-8.86-1.53-9.64-3.32,1.06-5.4,1.06-5.4Z"/><path class="cls-13" d="M1308.27,791.48s-13.06,29-25.22,28c-9.83-.76,11.36-29.85,11.36-29.85Z"/><path class="cls-33" d="M1254.35,648.39l4.23-1.3,38.08-11.67q9.52-2.92,19.11-5.37c6.38-1.66,12.76-3.38,19.17-4.92a31.51,31.51,0,0,1,5.46-.79,29.63,29.63,0,0,1,3,59.19c-6.58.32-13.19.48-19.78.69s-13.21.32-19.85.24l-19.18-.21,23.63,104.27a8.77,8.77,0,0,1-16.71,5.13L1243.41,671c-.15-.39-.3-.83-.43-1.24A17.14,17.14,0,0,1,1254.35,648.39Z"/><path class="cls-2" d="M1224.47,646.76l2.26.24,34.75-17.63a3.05,3.05,0,0,1,2.75,0l55.26,36,1.85.18-.08,1.44h0a1.16,1.16,0,0,1-.71.83l-38.69,19.62-54.32-35.41-4.74-3.08.07-1.57Z"/><path class="cls-3" d="M1264.31,627.83l56.6,36.9c.68.44.55,1.14-.29,1.57l-38.68,19.63-59.06-38.5,38.69-19.63A3.06,3.06,0,0,1,1264.31,627.83Z"/><path class="cls-2" d="M1242.12,641.9l-1.55-1a.58.58,0,0,0-.53,0l-1.57.8c-.16.08-.18.21,0,.3l1.55,1a.59.59,0,0,0,.52,0l1.58-.79C1242.22,642.12,1242.25,642,1242.12,641.9Z"/><path class="cls-2" d="M1244.45,643.42l-1.55-1a.56.56,0,0,0-.52,0l-1.58.8c-.16.08-.18.21,0,.3l1.55,1a.59.59,0,0,0,.52,0l1.58-.79C1244.56,643.63,1244.58,643.5,1244.45,643.42Z"/><path class="cls-2" d="M1246.78,644.94l-1.55-1a.59.59,0,0,0-.52,0l-1.58.8c-.16.08-.18.21-.05.3l1.55,1a.59.59,0,0,0,.52,0l1.58-.79C1246.89,645.15,1246.91,645,1246.78,644.94Z"/><path class="cls-2" d="M1249.11,646.46l-1.55-1a.59.59,0,0,0-.52,0l-1.57.8c-.16.08-.19.21-.06.3l1.55,1a.61.61,0,0,0,.53,0l1.57-.79C1249.22,646.67,1249.24,646.54,1249.11,646.46Z"/><path class="cls-2" d="M1251.44,648l-1.55-1a.59.59,0,0,0-.52,0l-1.57.8c-.16.08-.19.21-.06.3l1.55,1a.61.61,0,0,0,.53,0l1.57-.8C1251.55,648.19,1251.57,648.06,1251.44,648Z"/><path class="cls-2" d="M1253.78,649.49l-1.55-1a.61.61,0,0,0-.53,0l-1.57.8c-.16.08-.19.21-.06.29l1.55,1a.61.61,0,0,0,.53,0l1.57-.8C1253.88,649.71,1253.91,649.58,1253.78,649.49Z"/><path class="cls-2" d="M1257.19,651.72l-1.55-1a.59.59,0,0,0-.52,0l-1.57.79c-.16.09-.19.22-.06.3l1.55,1a.58.58,0,0,0,.53,0l1.57-.8C1257.3,651.94,1257.32,651.81,1257.19,651.72Z"/><path class="cls-2" d="M1259.53,653.24l-1.55-1a.58.58,0,0,0-.53,0l-1.57.79c-.16.08-.18.22-.06.3l1.56,1a.56.56,0,0,0,.52,0l1.57-.8C1259.63,653.46,1259.66,653.33,1259.53,653.24Z"/><path class="cls-2" d="M1261.86,654.76l-1.55-1a.58.58,0,0,0-.53,0l-1.57.79c-.16.08-.18.22,0,.3l1.55,1a.56.56,0,0,0,.52,0l1.57-.8C1262,655,1262,654.85,1261.86,654.76Z"/><path class="cls-2" d="M1264.19,656.28l-1.55-1a.61.61,0,0,0-.53,0l-1.57.8c-.16.08-.18.22,0,.3l1.55,1a.56.56,0,0,0,.52,0l1.57-.8C1264.29,656.5,1264.32,656.37,1264.19,656.28Z"/><path class="cls-2" d="M1266.52,657.8l-1.55-1a.59.59,0,0,0-.52,0l-1.58.8c-.16.08-.18.22,0,.3l1.55,1a.56.56,0,0,0,.52,0l1.58-.8C1266.63,658,1266.65,657.89,1266.52,657.8Z"/><path class="cls-2" d="M1268.85,659.32l-1.55-1a.59.59,0,0,0-.52,0l-1.58.8c-.16.08-.18.22,0,.3l1.55,1a.56.56,0,0,0,.52,0l1.58-.8C1269,659.54,1269,659.41,1268.85,659.32Z"/><path class="cls-2" d="M1272.27,661.55l-1.55-1a.56.56,0,0,0-.52,0l-1.58.8c-.16.08-.18.22,0,.3l1.55,1a.56.56,0,0,0,.52,0l1.58-.8C1272.38,661.77,1272.4,661.63,1272.27,661.55Z"/><path class="cls-2" d="M1274.6,663.07l-1.55-1a.56.56,0,0,0-.52,0l-1.58.8c-.16.08-.18.22,0,.3l1.55,1a.56.56,0,0,0,.52,0l1.58-.8C1274.71,663.29,1274.73,663.15,1274.6,663.07Z"/><path class="cls-2" d="M1276.93,664.59l-1.55-1a.56.56,0,0,0-.52,0l-1.57.8c-.16.08-.19.22-.06.3l1.55,1a.58.58,0,0,0,.53,0l1.57-.8C1277,664.81,1277.06,664.67,1276.93,664.59Z"/><path class="cls-2" d="M1279.26,666.11l-1.55-1a.56.56,0,0,0-.52,0l-1.57.8c-.16.08-.19.22-.06.3l1.55,1a.61.61,0,0,0,.53,0l1.57-.8C1279.37,666.33,1279.39,666.19,1279.26,666.11Z"/><path class="cls-2" d="M1281.6,667.63l-1.55-1a.58.58,0,0,0-.53,0l-1.57.8c-.16.08-.19.21-.06.3l1.55,1a.61.61,0,0,0,.53,0l1.57-.8C1281.7,667.85,1281.73,667.71,1281.6,667.63Z"/><path class="cls-2" d="M1283.93,669.15l-1.55-1a.58.58,0,0,0-.53,0l-1.57.8c-.16.08-.18.21,0,.3l1.55,1a.59.59,0,0,0,.52,0l1.57-.8C1284,669.37,1284.06,669.23,1283.93,669.15Z"/><path class="cls-2" d="M1286.88,671.07l-1.55-1a.56.56,0,0,0-.52,0l-1.58.79c-.16.09-.18.22,0,.3l1.55,1a.56.56,0,0,0,.52,0l1.58-.8C1287,671.29,1287,671.16,1286.88,671.07Z"/><path class="cls-2" d="M1289.21,672.59l-1.55-1a.56.56,0,0,0-.52,0l-1.58.79c-.16.08-.18.22,0,.3l1.55,1a.56.56,0,0,0,.52,0l1.58-.8C1289.32,672.81,1289.34,672.68,1289.21,672.59Z"/><path class="cls-2" d="M1291.54,674.11l-1.55-1a.56.56,0,0,0-.52,0l-1.58.79c-.15.08-.18.22-.05.3l1.55,1a.58.58,0,0,0,.53,0l1.57-.8C1291.65,674.33,1291.67,674.2,1291.54,674.11Z"/><path class="cls-2" d="M1293.87,675.63l-1.55-1a.56.56,0,0,0-.52,0l-1.57.79c-.16.08-.19.22-.06.3l1.55,1a.58.58,0,0,0,.53,0l1.57-.8C1294,675.85,1294,675.72,1293.87,675.63Z"/><path class="cls-2" d="M1257.41,634.68l1.58-.8c.16-.08.18-.21,0-.3l-1.55-1a.59.59,0,0,0-.52,0l-1.58.8c-.16.08-.18.21-.05.3l1.55,1A.59.59,0,0,0,1257.41,634.68Z"/><path class="cls-2" d="M1254.93,635.94l1.57-.8c.16-.08.19-.21.06-.3l-1.55-1a.61.61,0,0,0-.53,0l-1.57.79c-.16.09-.18.22-.05.3l1.55,1A.56.56,0,0,0,1254.93,635.94Z"/><path class="cls-2" d="M1252.45,637.2l1.57-.8c.16-.08.19-.21.06-.3l-1.55-1a.58.58,0,0,0-.53,0l-1.57.79c-.16.08-.18.22,0,.3l1.55,1A.56.56,0,0,0,1252.45,637.2Z"/><path class="cls-2" d="M1250,638.46l1.57-.8c.16-.08.18-.21,0-.3l-1.55-1a.59.59,0,0,0-.52,0l-1.57.8c-.16.08-.19.22-.06.3l1.55,1A.58.58,0,0,0,1250,638.46Z"/><path class="cls-2" d="M1247.49,639.72l1.57-.8c.16-.08.18-.21,0-.3l-1.55-1a.59.59,0,0,0-.52,0l-1.57.8c-.16.08-.19.22-.06.3l1.55,1A.58.58,0,0,0,1247.49,639.72Z"/><path class="cls-2" d="M1245,641l1.58-.8c.16-.08.18-.22.05-.3l-1.55-1a.56.56,0,0,0-.52,0l-1.58.8c-.16.08-.18.22,0,.3l1.55,1A.56.56,0,0,0,1245,641Z"/><path class="cls-2" d="M1259.74,636.2l1.58-.8c.16-.08.18-.21,0-.3l-1.55-1a.59.59,0,0,0-.52,0l-1.58.8c-.16.08-.18.21,0,.29l1.55,1A.59.59,0,0,0,1259.74,636.2Z"/><path class="cls-2" d="M1257.26,637.46l1.58-.8c.16-.08.18-.21.05-.3l-1.55-1a.56.56,0,0,0-.52,0l-1.58.79c-.16.09-.18.22,0,.3l1.55,1A.56.56,0,0,0,1257.26,637.46Z"/><path class="cls-2" d="M1254.78,638.72l1.57-.8c.16-.08.19-.21.06-.3l-1.55-1a.58.58,0,0,0-.53,0l-1.57.79c-.16.08-.18.22,0,.3l1.55,1A.56.56,0,0,0,1254.78,638.72Z"/><path class="cls-2" d="M1252.3,640l1.57-.8c.16-.08.19-.21.06-.3l-1.55-1a.61.61,0,0,0-.53,0l-1.57.8c-.16.08-.18.22,0,.3l1.55,1A.56.56,0,0,0,1252.3,640Z"/><path class="cls-2" d="M1249.82,641.24l1.57-.8c.16-.08.18-.21,0-.3l-1.55-1a.59.59,0,0,0-.52,0l-1.57.8c-.16.08-.19.22-.06.3l1.55,1A.58.58,0,0,0,1249.82,641.24Z"/><path class="cls-2" d="M1247.34,642.5l1.57-.8c.16-.08.18-.22,0-.3l-1.55-1a.56.56,0,0,0-.52,0l-1.57.8c-.16.08-.19.22-.06.3l1.55,1A.58.58,0,0,0,1247.34,642.5Z"/><path class="cls-2" d="M1262.08,637.72l1.57-.8c.16-.08.18-.21,0-.3l-1.55-1a.59.59,0,0,0-.52,0l-1.57.79c-.16.09-.19.22-.06.3l1.55,1A.61.61,0,0,0,1262.08,637.72Z"/><path class="cls-2" d="M1259.59,639l1.58-.8c.16-.08.18-.21,0-.3l-1.55-1a.56.56,0,0,0-.52,0l-1.58.79c-.16.08-.18.22,0,.3l1.55,1A.56.56,0,0,0,1259.59,639Z"/><path class="cls-2" d="M1257.11,640.24l1.58-.8c.15-.08.18-.21,0-.3l-1.55-1a.61.61,0,0,0-.53,0l-1.57.8c-.16.08-.18.22,0,.3l1.55,1A.56.56,0,0,0,1257.11,640.24Z"/><path class="cls-2" d="M1254.63,641.5l1.57-.8c.16-.08.19-.21.06-.3l-1.55-1a.61.61,0,0,0-.53,0l-1.57.8c-.16.08-.18.22,0,.3l1.55,1A.56.56,0,0,0,1254.63,641.5Z"/><path class="cls-2" d="M1252.15,642.76l1.57-.8c.16-.08.19-.22.06-.3l-1.55-1a.61.61,0,0,0-.53,0l-1.57.8c-.16.08-.19.22-.06.3l1.55,1A.58.58,0,0,0,1252.15,642.76Z"/><path class="cls-2" d="M1249.67,644l1.57-.8c.16-.08.18-.22,0-.3l-1.55-1a.56.56,0,0,0-.52,0l-1.57.8c-.16.08-.19.22-.06.3l1.55,1A.58.58,0,0,0,1249.67,644Z"/><path class="cls-2" d="M1264.41,639.24l1.57-.8c.16-.08.18-.21,0-.3l-1.55-1a.59.59,0,0,0-.52,0l-1.57.79c-.16.09-.19.22-.06.3l1.55,1A.58.58,0,0,0,1264.41,639.24Z"/><path class="cls-2" d="M1261.93,640.5l1.57-.8c.16-.08.18-.21,0-.3l-1.55-1a.56.56,0,0,0-.52,0l-1.58.79c-.15.08-.18.22-.05.3l1.55,1A.58.58,0,0,0,1261.93,640.5Z"/><path class="cls-2" d="M1259.44,641.76l1.58-.8c.16-.08.18-.21,0-.3l-1.55-1a.59.59,0,0,0-.52,0l-1.58.8c-.16.08-.18.22-.05.3l1.55,1A.56.56,0,0,0,1259.44,641.76Z"/><path class="cls-2" d="M1257,643l1.57-.8c.16-.08.19-.21.06-.3l-1.55-1a.61.61,0,0,0-.53,0l-1.57.8c-.16.08-.18.22,0,.3l1.55,1A.56.56,0,0,0,1257,643Z"/><path class="cls-2" d="M1254.48,644.28l1.57-.8c.16-.08.19-.22.06-.3l-1.55-1a.61.61,0,0,0-.53,0l-1.57.8c-.16.08-.18.22,0,.3l1.55,1A.56.56,0,0,0,1254.48,644.28Z"/><path class="cls-2" d="M1252,645.54l1.57-.8c.16-.08.19-.22.06-.3l-1.56-1a.56.56,0,0,0-.52,0l-1.57.8c-.16.08-.19.22-.06.3l1.55,1A.58.58,0,0,0,1252,645.54Z"/><path class="cls-2" d="M1266.74,640.76l1.57-.8c.16-.08.18-.21,0-.3l-1.55-1a.56.56,0,0,0-.52,0l-1.57.79c-.16.09-.19.22-.06.3l1.55,1A.58.58,0,0,0,1266.74,640.76Z"/><path class="cls-2" d="M1264.26,642l1.57-.8c.16-.08.18-.21.05-.3l-1.55-1a.59.59,0,0,0-.52,0l-1.57.8c-.16.08-.19.22-.06.3l1.55,1A.58.58,0,0,0,1264.26,642Z"/><path class="cls-2" d="M1261.77,643.28l1.58-.8c.16-.08.18-.21.05-.3l-1.55-1a.59.59,0,0,0-.52,0l-1.58.8c-.16.08-.18.22,0,.3l1.55,1A.56.56,0,0,0,1261.77,643.28Z"/><path class="cls-2" d="M1259.29,644.54l1.58-.8c.16-.08.18-.21.05-.3l-1.55-1a.59.59,0,0,0-.52,0l-1.58.8c-.16.08-.18.22,0,.3l1.55,1A.56.56,0,0,0,1259.29,644.54Z"/><path class="cls-2" d="M1256.81,645.8l1.57-.8c.16-.08.19-.22.06-.3l-1.55-1a.58.58,0,0,0-.53,0l-1.57.8c-.16.08-.18.22,0,.3l1.55,1A.56.56,0,0,0,1256.81,645.8Z"/><path class="cls-2" d="M1254.33,647.06l1.57-.8c.16-.08.19-.22.06-.3l-1.55-1a.58.58,0,0,0-.53,0l-1.57.8c-.16.08-.18.21,0,.3l1.55,1A.59.59,0,0,0,1254.33,647.06Z"/><path class="cls-2" d="M1269.07,642.28l1.57-.8c.16-.08.19-.21.06-.3l-1.55-1a.58.58,0,0,0-.53,0l-1.57.79c-.16.08-.18.22,0,.3l1.55,1A.56.56,0,0,0,1269.07,642.28Z"/><path class="cls-2" d="M1266.59,643.54l1.57-.8c.16-.08.18-.21,0-.3l-1.55-1a.59.59,0,0,0-.52,0l-1.57.8c-.16.08-.19.22-.06.3l1.55,1A.58.58,0,0,0,1266.59,643.54Z"/><path class="cls-2" d="M1264.11,644.8l1.57-.8c.16-.08.18-.21,0-.3l-1.55-1a.59.59,0,0,0-.52,0l-1.57.8c-.16.08-.19.22-.06.3l1.55,1A.58.58,0,0,0,1264.11,644.8Z"/><path class="cls-2" d="M1261.62,646.06l1.58-.8c.16-.08.18-.22,0-.3l-1.55-1a.56.56,0,0,0-.52,0l-1.58.8c-.16.08-.18.22,0,.3l1.55,1A.56.56,0,0,0,1261.62,646.06Z"/><path class="cls-2" d="M1259.14,647.32l1.58-.8c.16-.08.18-.22,0-.3l-1.55-1a.56.56,0,0,0-.52,0l-1.58.8c-.16.08-.18.22,0,.3l1.55,1A.56.56,0,0,0,1259.14,647.32Z"/><path class="cls-2" d="M1256.66,648.58l1.57-.8c.16-.08.19-.22.06-.3l-1.55-1a.58.58,0,0,0-.53,0l-1.57.8c-.16.08-.18.21-.05.3l1.55,1A.59.59,0,0,0,1256.66,648.58Z"/><path class="cls-2" d="M1268.92,645.06l1.57-.8c.16-.08.19-.21.06-.3l-1.55-1a.61.61,0,0,0-.53,0l-1.57.8c-.16.08-.19.22-.06.3l1.55,1A.58.58,0,0,0,1268.92,645.06Z"/><path class="cls-2" d="M1266.44,646.32l1.57-.8c.16-.08.18-.21,0-.3l-1.55-1a.59.59,0,0,0-.52,0l-1.57.8c-.16.08-.19.22-.06.3l1.55,1A.58.58,0,0,0,1266.44,646.32Z"/><path class="cls-2" d="M1264,647.58l1.57-.8c.16-.08.18-.22,0-.3l-1.55-1a.56.56,0,0,0-.52,0l-1.57.8c-.16.08-.19.22-.06.3l1.55,1A.58.58,0,0,0,1264,647.58Z"/><path class="cls-2" d="M1261.47,648.84l1.58-.8c.16-.08.18-.22,0-.3l-1.55-1a.56.56,0,0,0-.52,0l-1.58.8c-.16.08-.18.21,0,.3l1.55,1A.59.59,0,0,0,1261.47,648.84Z"/><path class="cls-2" d="M1259,650.1l1.58-.8c.15-.08.18-.22,0-.3l-1.55-1a.58.58,0,0,0-.53,0l-1.57.8c-.16.08-.18.21,0,.3l1.55,1A.59.59,0,0,0,1259,650.1Z"/><path class="cls-2" d="M1271.25,646.58l1.57-.8c.16-.08.19-.21.06-.3l-1.55-1a.61.61,0,0,0-.53,0l-1.57.8c-.16.08-.18.22,0,.3l1.55,1A.56.56,0,0,0,1271.25,646.58Z"/><path class="cls-2" d="M1268.77,647.84l1.57-.8c.16-.08.19-.22.06-.3l-1.56-1a.59.59,0,0,0-.52,0l-1.57.8c-.16.08-.19.22-.06.3l1.55,1A.58.58,0,0,0,1268.77,647.84Z"/><path class="cls-2" d="M1266.29,649.1l1.57-.8c.16-.08.18-.22.05-.3l-1.55-1a.56.56,0,0,0-.52,0l-1.57.8c-.16.08-.19.22-.06.3l1.55,1A.58.58,0,0,0,1266.29,649.1Z"/><path class="cls-2" d="M1263.81,650.36l1.57-.8c.16-.08.18-.22,0-.3l-1.55-1a.56.56,0,0,0-.52,0l-1.58.8c-.15.08-.18.21,0,.3l1.55,1A.61.61,0,0,0,1263.81,650.36Z"/><path class="cls-2" d="M1261.32,651.62l1.58-.8c.16-.08.18-.22,0-.3l-1.55-1a.56.56,0,0,0-.52,0l-1.58.8c-.16.08-.18.21,0,.3l1.55,1A.59.59,0,0,0,1261.32,651.62Z"/><path class="cls-2" d="M1273.59,648l1.57-.8c.16-.08.18-.21,0-.3l-1.55-1a.59.59,0,0,0-.52,0l-1.57.8c-.16.08-.19.21-.06.29l1.55,1A.61.61,0,0,0,1273.59,648Z"/><path class="cls-2" d="M1271.1,649.27l1.58-.8c.16-.08.18-.21,0-.3l-1.55-1a.59.59,0,0,0-.52,0l-1.58.79c-.16.09-.18.22,0,.3l1.55,1A.56.56,0,0,0,1271.1,649.27Z"/><path class="cls-2" d="M1268.62,650.53l1.58-.8c.16-.08.18-.21,0-.3l-1.55-1a.56.56,0,0,0-.52,0l-1.58.79c-.16.08-.18.22,0,.3l1.55,1A.56.56,0,0,0,1268.62,650.53Z"/><path class="cls-2" d="M1266.14,651.79l1.57-.8c.16-.08.19-.21.06-.3l-1.55-1a.61.61,0,0,0-.53,0l-1.57.8c-.16.08-.18.22,0,.3l1.55,1A.56.56,0,0,0,1266.14,651.79Z"/><path class="cls-2" d="M1263.66,653.05l1.57-.8c.16-.08.19-.21.06-.3l-1.55-1a.61.61,0,0,0-.53,0l-1.57.8c-.16.08-.18.22-.05.3l1.55,1A.56.56,0,0,0,1263.66,653.05Z"/><path class="cls-2" d="M1275.92,649.53l1.57-.8c.16-.08.18-.21,0-.3l-1.55-1a.59.59,0,0,0-.52,0l-1.57.8c-.16.08-.19.21-.06.29l1.55,1A.61.61,0,0,0,1275.92,649.53Z"/><path class="cls-2" d="M1273.44,650.79l1.57-.8c.16-.08.18-.21,0-.3l-1.55-1a.56.56,0,0,0-.52,0l-1.57.79c-.16.09-.19.22-.06.3l1.55,1A.58.58,0,0,0,1273.44,650.79Z"/><path class="cls-2" d="M1271,652.05l1.58-.8c.16-.08.18-.21,0-.3l-1.55-1a.56.56,0,0,0-.52,0l-1.58.79c-.16.08-.18.22,0,.3l1.55,1A.56.56,0,0,0,1271,652.05Z"/><path class="cls-2" d="M1268.47,653.31l1.58-.8c.15-.08.18-.21,0-.3l-1.55-1a.61.61,0,0,0-.53,0l-1.57.8c-.16.08-.18.22,0,.3l1.55,1A.56.56,0,0,0,1268.47,653.31Z"/><path class="cls-2" d="M1266,654.57l1.57-.8c.16-.08.19-.21.06-.3l-1.55-1a.61.61,0,0,0-.53,0l-1.57.8c-.16.08-.18.22,0,.3l1.55,1A.56.56,0,0,0,1266,654.57Z"/><path class="cls-2" d="M1278.25,651.05l1.57-.8c.16-.08.19-.21.06-.3l-1.55-1a.61.61,0,0,0-.53,0l-1.57.79c-.16.09-.19.22-.06.3l1.56,1A.59.59,0,0,0,1278.25,651.05Z"/><path class="cls-2" d="M1275.77,652.31l1.57-.8c.16-.08.18-.21.05-.3l-1.55-1a.56.56,0,0,0-.52,0l-1.57.79c-.16.08-.19.22-.06.3l1.55,1A.58.58,0,0,0,1275.77,652.31Z"/><path class="cls-2" d="M1273.29,653.57l1.57-.8c.16-.08.18-.21.05-.3l-1.55-1a.59.59,0,0,0-.52,0l-1.58.8c-.15.08-.18.22,0,.3l1.55,1A.58.58,0,0,0,1273.29,653.57Z"/><path class="cls-2" d="M1270.8,654.83l1.58-.8c.16-.08.18-.21,0-.3l-1.55-1a.59.59,0,0,0-.52,0l-1.58.8c-.16.08-.18.22,0,.3l1.55,1A.56.56,0,0,0,1270.8,654.83Z"/><path class="cls-2" d="M1268.32,656.09l1.57-.8c.16-.08.19-.22.06-.3l-1.55-1a.61.61,0,0,0-.53,0l-1.57.8c-.16.08-.18.22,0,.3l1.55,1A.56.56,0,0,0,1268.32,656.09Z"/><path class="cls-2" d="M1280.58,652.57l1.57-.8c.16-.08.19-.21.06-.3l-1.55-1a.61.61,0,0,0-.53,0l-1.57.79c-.16.09-.18.22,0,.3l1.55,1A.56.56,0,0,0,1280.58,652.57Z"/><path class="cls-2" d="M1278.1,653.83l1.57-.8c.16-.08.19-.21.06-.3l-1.56-1a.56.56,0,0,0-.52,0l-1.57.79c-.16.08-.19.22-.06.3l1.55,1A.58.58,0,0,0,1278.1,653.83Z"/><path class="cls-2" d="M1275.62,655.09l1.57-.8c.16-.08.18-.21,0-.3l-1.55-1a.59.59,0,0,0-.52,0l-1.57.8c-.16.08-.19.22-.06.3l1.55,1A.58.58,0,0,0,1275.62,655.09Z"/><path class="cls-2" d="M1273.14,656.35l1.57-.8c.16-.08.18-.21,0-.3l-1.55-1a.59.59,0,0,0-.52,0l-1.58.8c-.16.08-.18.22,0,.3l1.55,1A.58.58,0,0,0,1273.14,656.35Z"/><path class="cls-2" d="M1270.65,657.61l1.58-.8c.16-.08.18-.22,0-.3l-1.55-1a.56.56,0,0,0-.52,0l-1.58.8c-.16.08-.18.22-.05.3l1.55,1A.56.56,0,0,0,1270.65,657.61Z"/><path class="cls-2" d="M1282.91,654.09l1.57-.8c.16-.08.19-.21.06-.3l-1.55-1a.58.58,0,0,0-.53,0l-1.57.79c-.16.08-.18.22-.05.3l1.55,1A.56.56,0,0,0,1282.91,654.09Z"/><path class="cls-2" d="M1280.43,655.35l1.57-.8c.16-.08.19-.21.06-.3l-1.55-1a.61.61,0,0,0-.53,0l-1.57.8c-.16.08-.18.22-.05.3l1.55,1A.56.56,0,0,0,1280.43,655.35Z"/><path class="cls-2" d="M1278,656.61l1.57-.8c.16-.08.18-.21,0-.3l-1.55-1a.59.59,0,0,0-.52,0l-1.57.8c-.16.08-.19.22-.06.3l1.55,1A.58.58,0,0,0,1278,656.61Z"/><path class="cls-2" d="M1275.47,657.87l1.57-.8c.16-.08.18-.22,0-.3l-1.55-1a.59.59,0,0,0-.52,0l-1.57.8c-.16.08-.19.22-.06.3l1.55,1A.58.58,0,0,0,1275.47,657.87Z"/><path class="cls-2" d="M1273,659.13l1.58-.8c.16-.08.18-.22,0-.3l-1.55-1a.56.56,0,0,0-.52,0l-1.58.8c-.16.08-.18.22,0,.3l1.55,1A.56.56,0,0,0,1273,659.13Z"/><path class="cls-2" d="M1285.24,655.61l1.58-.8c.16-.08.18-.21,0-.3l-1.55-1a.56.56,0,0,0-.52,0l-1.58.79c-.16.08-.18.22,0,.3l1.55,1A.56.56,0,0,0,1285.24,655.61Z"/><path class="cls-2" d="M1282.76,656.87l1.57-.8c.16-.08.19-.21.06-.3l-1.55-1a.61.61,0,0,0-.53,0l-1.57.8c-.16.08-.18.22,0,.3l1.55,1A.56.56,0,0,0,1282.76,656.87Z"/><path class="cls-2" d="M1280.28,658.13l1.57-.8c.16-.08.19-.21.06-.3l-1.55-1a.61.61,0,0,0-.53,0l-1.57.8c-.16.08-.18.22-.06.3l1.56,1A.56.56,0,0,0,1280.28,658.13Z"/><path class="cls-2" d="M1277.8,659.39l1.57-.8c.16-.08.18-.22.05-.3l-1.55-1a.56.56,0,0,0-.52,0l-1.57.8c-.16.08-.19.22-.06.3l1.55,1A.58.58,0,0,0,1277.8,659.39Z"/><path class="cls-2" d="M1275.32,660.65l1.57-.8c.16-.08.18-.22,0-.3l-1.55-1a.56.56,0,0,0-.52,0l-1.57.8c-.16.08-.19.22-.06.3l1.55,1A.58.58,0,0,0,1275.32,660.65Z"/><path class="cls-2" d="M1287.57,657.13l1.58-.8c.16-.08.18-.21,0-.3l-1.55-1a.56.56,0,0,0-.52,0l-1.58.79c-.16.08-.18.22,0,.3l1.55,1A.56.56,0,0,0,1287.57,657.13Z"/><path class="cls-2" d="M1285.09,658.39l1.58-.8c.15-.08.18-.21,0-.3l-1.55-1a.61.61,0,0,0-.53,0l-1.57.8c-.16.08-.18.22,0,.3l1.55,1A.56.56,0,0,0,1285.09,658.39Z"/><path class="cls-2" d="M1282.61,659.65l1.57-.8c.16-.08.19-.21.06-.3l-1.55-1a.61.61,0,0,0-.53,0l-1.57.8c-.16.08-.18.22,0,.3l1.55,1A.56.56,0,0,0,1282.61,659.65Z"/><path class="cls-2" d="M1280.13,660.91l1.57-.8c.16-.08.19-.22.06-.3l-1.55-1a.58.58,0,0,0-.53,0l-1.57.8c-.16.08-.19.22-.06.3l1.56,1A.56.56,0,0,0,1280.13,660.91Z"/><path class="cls-2" d="M1277.65,662.17l1.57-.8c.16-.08.18-.22,0-.3l-1.55-1a.56.56,0,0,0-.52,0l-1.57.8c-.16.08-.19.21-.06.3l1.55,1A.61.61,0,0,0,1277.65,662.17Z"/><path class="cls-2" d="M1289.91,658.65l1.57-.8c.16-.08.18-.21,0-.3l-1.55-1a.59.59,0,0,0-.52,0l-1.58.8c-.15.08-.18.22-.05.3l1.55,1A.58.58,0,0,0,1289.91,658.65Z"/><path class="cls-2" d="M1287.42,659.91l1.58-.8c.16-.08.18-.21,0-.3l-1.55-1a.59.59,0,0,0-.52,0l-1.58.8c-.16.08-.18.22-.05.3l1.55,1A.56.56,0,0,0,1287.42,659.91Z"/><path class="cls-2" d="M1284.94,661.17l1.57-.8c.16-.08.19-.22.06-.3l-1.55-1a.61.61,0,0,0-.53,0l-1.57.8c-.16.08-.18.22-.05.3l1.55,1A.56.56,0,0,0,1284.94,661.17Z"/><path class="cls-2" d="M1282.46,662.43l1.57-.8c.16-.08.19-.22.06-.3l-1.55-1a.58.58,0,0,0-.53,0l-1.57.8c-.16.08-.18.22,0,.3l1.55,1A.56.56,0,0,0,1282.46,662.43Z"/><path class="cls-2" d="M1280,663.69l1.57-.8c.16-.08.19-.22.06-.3l-1.55-1a.58.58,0,0,0-.53,0l-1.57.8c-.16.08-.19.21-.06.3l1.55,1A.61.61,0,0,0,1280,663.69Z"/><path class="cls-2" d="M1294.72,658.91l1.57-.8c.16-.08.18-.21.06-.3l-1.56-1a.56.56,0,0,0-.52,0l-1.57.79c-.16.08-.19.22-.06.3l1.55,1A.58.58,0,0,0,1294.72,658.91Z"/><path class="cls-2" d="M1292.24,660.17l1.57-.8c.16-.08.18-.21,0-.3l-1.55-1a.59.59,0,0,0-.52,0l-1.57.8c-.16.08-.19.22-.06.3l1.55,1A.58.58,0,0,0,1292.24,660.17Z"/><path class="cls-2" d="M1289.75,661.43l1.58-.8c.16-.08.18-.21.05-.3l-1.55-1a.59.59,0,0,0-.52,0l-1.58.8c-.16.08-.18.22,0,.3l1.55,1A.56.56,0,0,0,1289.75,661.43Z"/><path class="cls-2" d="M1287.27,662.69l1.58-.8c.16-.08.18-.22.05-.3l-1.55-1a.56.56,0,0,0-.52,0l-1.58.8c-.16.08-.18.22,0,.3l1.55,1A.56.56,0,0,0,1287.27,662.69Z"/><path class="cls-2" d="M1284.79,664l1.57-.8c.16-.08.19-.22.06-.3l-1.55-1a.58.58,0,0,0-.53,0l-1.57.8c-.16.08-.18.22,0,.3l1.55,1A.59.59,0,0,0,1284.79,664Z"/><path class="cls-2" d="M1282.31,665.21l1.57-.8c.16-.08.19-.22.06-.3l-1.55-1a.58.58,0,0,0-.53,0l-1.57.8c-.16.08-.18.21,0,.3l1.55,1A.59.59,0,0,0,1282.31,665.21Z"/><path class="cls-2" d="M1297.05,660.43l1.57-.8c.16-.08.19-.21.06-.3l-1.55-1a.61.61,0,0,0-.53,0l-1.57.8c-.16.08-.18.22,0,.3l1.55,1A.56.56,0,0,0,1297.05,660.43Z"/><path class="cls-2" d="M1294.57,661.69l1.57-.8c.16-.08.18-.21,0-.3l-1.55-1a.59.59,0,0,0-.52,0l-1.57.8c-.16.08-.19.22-.06.3l1.55,1A.58.58,0,0,0,1294.57,661.69Z"/><path class="cls-2" d="M1292.09,663l1.57-.8c.16-.08.18-.22,0-.3l-1.55-1a.56.56,0,0,0-.52,0l-1.57.8c-.16.08-.19.22-.06.3l1.55,1A.58.58,0,0,0,1292.09,663Z"/><path class="cls-2" d="M1289.6,664.21l1.58-.8c.16-.08.18-.22,0-.3l-1.55-1a.56.56,0,0,0-.52,0l-1.58.8c-.16.08-.18.22,0,.3l1.55,1A.56.56,0,0,0,1289.6,664.21Z"/><path class="cls-2" d="M1287.12,665.47l1.58-.8c.16-.08.18-.22,0-.3l-1.55-1a.56.56,0,0,0-.52,0l-1.58.8c-.16.08-.18.21,0,.3l1.55,1A.59.59,0,0,0,1287.12,665.47Z"/><path class="cls-2" d="M1284.64,666.73l1.57-.8c.16-.08.19-.22.06-.3l-1.55-1a.58.58,0,0,0-.53,0l-1.57.8c-.16.08-.18.21,0,.3l1.55,1A.59.59,0,0,0,1284.64,666.73Z"/><path class="cls-2" d="M1299.33,661.89l1.57-.8c.16-.08.18-.22,0-.3l-1.55-1a.56.56,0,0,0-.52,0l-1.57.8c-.16.08-.19.22-.06.3l1.55,1A.58.58,0,0,0,1299.33,661.89Z"/><path class="cls-2" d="M1296.84,663.15l1.58-.8c.16-.08.18-.22,0-.3l-1.55-1a.56.56,0,0,0-.52,0l-1.58.8c-.16.08-.18.22,0,.3l1.55,1A.59.59,0,0,0,1296.84,663.15Z"/><path class="cls-2" d="M1294.36,664.41l1.57-.8c.16-.08.19-.22.06-.3l-1.55-1a.58.58,0,0,0-.53,0l-1.57.8c-.16.08-.18.21,0,.3l1.55,1A.59.59,0,0,0,1294.36,664.41Z"/><path class="cls-2" d="M1291.88,665.67l1.57-.8c.16-.08.19-.22.06-.3l-1.55-1a.58.58,0,0,0-.53,0l-1.57.8c-.16.08-.18.21,0,.3l1.55,1A.59.59,0,0,0,1291.88,665.67Z"/><path class="cls-2" d="M1289.4,666.92l1.57-.79c.16-.08.19-.22.06-.3l-1.55-1a.58.58,0,0,0-.53,0l-1.57.8c-.16.08-.19.21-.06.3l1.55,1A.58.58,0,0,0,1289.4,666.92Z"/><path class="cls-2" d="M1286.92,668.18l1.57-.79c.16-.09.18-.22,0-.3l-1.55-1a.59.59,0,0,0-.52,0l-1.57.8c-.16.08-.19.21-.06.3l1.55,1A.61.61,0,0,0,1286.92,668.18Z"/><path class="cls-2" d="M1301.66,663.41l1.57-.8c.16-.08.18-.22,0-.3l-1.55-1a.56.56,0,0,0-.52,0l-1.57.8c-.16.08-.19.22-.06.3l1.55,1A.58.58,0,0,0,1301.66,663.41Z"/><path class="cls-2" d="M1299.17,664.67l1.58-.8c.16-.08.18-.22,0-.3l-1.55-1a.56.56,0,0,0-.52,0l-1.58.8c-.16.08-.18.21-.05.3l1.55,1A.59.59,0,0,0,1299.17,664.67Z"/><path class="cls-2" d="M1296.69,665.93l1.58-.8c.16-.08.18-.22,0-.3l-1.55-1a.56.56,0,0,0-.52,0l-1.58.8c-.16.08-.18.21-.05.3l1.55,1A.59.59,0,0,0,1296.69,665.93Z"/><path class="cls-2" d="M1294.21,667.18l1.57-.79c.16-.08.19-.22.06-.3l-1.55-1a.58.58,0,0,0-.53,0l-1.57.8c-.16.08-.18.21,0,.3l1.55,1A.56.56,0,0,0,1294.21,667.18Z"/><path class="cls-2" d="M1291.73,668.44l1.57-.79c.16-.09.19-.22.06-.3l-1.55-1a.58.58,0,0,0-.53,0l-1.57.8c-.16.08-.18.21,0,.3l1.55,1A.56.56,0,0,0,1291.73,668.44Z"/><path class="cls-2" d="M1289.25,669.7l1.57-.8c.16-.08.19-.21.06-.29l-1.56-1a.59.59,0,0,0-.52,0l-1.57.8c-.16.08-.19.21-.06.3l1.55,1A.61.61,0,0,0,1289.25,669.7Z"/><path class="cls-2" d="M1304,664.93l1.57-.8c.16-.08.18-.22,0-.3l-1.55-1a.56.56,0,0,0-.52,0l-1.57.8c-.16.08-.19.22-.06.3l1.55,1A.61.61,0,0,0,1304,664.93Z"/><path class="cls-2" d="M1301.51,666.19l1.57-.8c.16-.08.18-.22.05-.3l-1.55-1a.56.56,0,0,0-.52,0l-1.57.8c-.16.08-.19.21-.06.3l1.55,1A.61.61,0,0,0,1301.51,666.19Z"/><path class="cls-2" d="M1299,667.45l1.58-.8c.16-.08.18-.22.05-.3l-1.55-1a.56.56,0,0,0-.52,0l-1.58.8c-.16.08-.18.21,0,.3l1.55,1A.59.59,0,0,0,1299,667.45Z"/><path class="cls-2" d="M1296.54,668.7l1.58-.79c.16-.08.18-.22.05-.3l-1.55-1a.56.56,0,0,0-.52,0l-1.58.8c-.16.08-.18.21,0,.3l1.55,1A.56.56,0,0,0,1296.54,668.7Z"/><path class="cls-2" d="M1294.06,670l1.57-.79c.16-.09.19-.22.06-.3l-1.55-1a.58.58,0,0,0-.53,0l-1.57.8c-.16.08-.18.21,0,.3l1.55,1A.59.59,0,0,0,1294.06,670Z"/><path class="cls-2" d="M1291.58,671.22l1.57-.8c.16-.08.19-.21.06-.3l-1.55-1a.61.61,0,0,0-.53,0l-1.57.8c-.16.08-.18.21,0,.3l1.55,1A.59.59,0,0,0,1291.58,671.22Z"/><path class="cls-2" d="M1306.32,666.45l1.57-.8c.16-.08.19-.22.06-.3l-1.55-1a.58.58,0,0,0-.53,0l-1.57.8c-.16.08-.18.21-.06.3l1.56,1A.59.59,0,0,0,1306.32,666.45Z"/><path class="cls-2" d="M1303.84,667.71l1.57-.8c.16-.08.18-.22,0-.3l-1.55-1a.56.56,0,0,0-.52,0l-1.57.8c-.16.08-.19.21-.06.3l1.55,1A.61.61,0,0,0,1303.84,667.71Z"/><path class="cls-2" d="M1301.36,669l1.57-.79c.16-.08.18-.22,0-.3l-1.55-1a.56.56,0,0,0-.52,0l-1.57.8c-.16.08-.19.21-.06.3l1.55,1A.58.58,0,0,0,1301.36,669Z"/><path class="cls-2" d="M1298.87,670.22l1.58-.79c.16-.08.18-.22,0-.3l-1.55-1a.56.56,0,0,0-.52,0l-1.58.8c-.16.08-.18.21,0,.3l1.55,1A.56.56,0,0,0,1298.87,670.22Z"/><path class="cls-2" d="M1296.39,671.48l1.58-.8c.15-.08.18-.21,0-.29l-1.55-1a.61.61,0,0,0-.53,0l-1.57.8c-.16.08-.18.21,0,.3l1.55,1A.59.59,0,0,0,1296.39,671.48Z"/><path class="cls-2" d="M1293.91,672.74l1.57-.8c.16-.08.19-.21.06-.3l-1.55-1a.61.61,0,0,0-.53,0l-1.57.8c-.16.08-.18.21-.05.3l1.55,1A.59.59,0,0,0,1293.91,672.74Z"/><path class="cls-2" d="M1308.65,668l1.57-.8c.16-.08.19-.22.06-.3l-1.55-1a.58.58,0,0,0-.53,0l-1.57.8c-.16.08-.18.21-.05.3l1.55,1A.59.59,0,0,0,1308.65,668Z"/><path class="cls-2" d="M1306.17,669.23l1.57-.8c.16-.08.19-.22.06-.3l-1.55-1a.58.58,0,0,0-.53,0l-1.57.8c-.16.08-.19.21-.06.3l1.55,1A.61.61,0,0,0,1306.17,669.23Z"/><path class="cls-2" d="M1303.69,670.48l1.57-.79c.16-.08.18-.22,0-.3l-1.55-1a.56.56,0,0,0-.52,0l-1.57.8c-.16.08-.19.21-.06.3l1.55,1A.58.58,0,0,0,1303.69,670.48Z"/><path class="cls-2" d="M1301.21,671.74l1.57-.79c.16-.09.18-.22,0-.3l-1.55-1a.56.56,0,0,0-.52,0l-1.58.8c-.15.08-.18.21,0,.3l1.55,1A.61.61,0,0,0,1301.21,671.74Z"/><path class="cls-2" d="M1298.72,673l1.58-.8c.16-.08.18-.21,0-.3l-1.55-1a.59.59,0,0,0-.52,0l-1.58.8c-.16.08-.18.21,0,.3l1.55,1A.59.59,0,0,0,1298.72,673Z"/><path class="cls-2" d="M1296.24,674.26l1.57-.8c.16-.08.19-.21.06-.3l-1.55-1a.61.61,0,0,0-.53,0l-1.57.8c-.16.08-.18.21,0,.29l1.55,1A.59.59,0,0,0,1296.24,674.26Z"/><path class="cls-2" d="M1294,656.38l-22.53-14.69a.58.58,0,0,0-.53,0l-1.57.79c-.16.08-.18.22-.05.3l22.53,14.69a.56.56,0,0,0,.52,0l1.58-.8C1294.11,656.6,1294.14,656.46,1294,656.38Z"/><polygon class="cls-2" points="1281.94 685.93 1284.42 684.67 1281.67 676.93 1278.74 676.93 1281.94 685.93"/><path class="cls-40" d="M1373.48,651.84s-15,21.42-55.06,6-32.21-28.6-32.21-28.6-3.91-78.4,0-96.69,8.79-30.23,17.67-35.72c0,0,44,16,52.78,25.39,5.22,5.61,7.25,48.9,11.12,83C1370.39,628.33,1373.48,651.84,1373.48,651.84Z"/><polygon class="cls-14" points="1276.21 552.64 1272.07 602.78 1246.02 640.16 1258.52 646.44 1285.7 618.25 1284.53 556.97 1276.21 552.64"/><path class="cls-14" d="M1331.63,491.1l4.14,22.19s-2.59,9.16-13.56,6.14-9.41-9.72-9.41-9.72l-.62-14.73Z"/><path class="cls-21" d="M1312.21,495.71s3.74,8.34,21.54,6.72L1331,488.12Z"/><path class="cls-14" d="M1297.31,471.8c4.3,20.12,12.8,30.72,23.9,28.34s23.35-12.62,18.6-34.84c-3.37-15.72-15.1-26.53-26.19-24.16C1294.75,445.19,1293.94,456.09,1297.31,471.8Z"/><path class="cls-22" d="M1295,456.93a4.9,4.9,0,0,1-2.46-6c1.59-4.67,5.39-11.83,14.15-14,9.92-2.51,33.45-9.22,37.91,30.9,0,0,0,.66,0,5,0,0-9.51-7.42-11.59-10.54s-6.35-5.31-12-5.46c-4.85-.12-7.16.47-11,3.39a6.86,6.86,0,0,1-7.18.68Z"/><path class="cls-14" d="M1331.11,471.85a7.12,7.12,0,1,0,5.47-8.46A7.13,7.13,0,0,0,1331.11,471.85Z"/><path class="cls-39" d="M1311.36,521.63c5.24,2.79,13.55,2.5,18.58-.64s4.86-7.94-.37-10.73-13.55-2.49-18.58.65S1306.13,518.85,1311.36,521.63Z"/><path class="cls-14" d="M1313.9,520c5.16,2.75,13.36,2.46,18.31-.63s4.79-7.83-.36-10.57-13.36-2.46-18.32.63S1308.74,517.24,1313.9,520Z"/><polygon class="cls-22" points="1322.52 456.86 1331.06 469.6 1335.31 466.2 1333.94 461.14 1327.17 453.48 1322.52 456.86"/><path class="cls-14" d="M1332.18,564.49l-9,56.1,3.41-5.5-34.2,33.56a7.19,7.19,0,0,0,9.29,10.93l38.63-28.35,2-1.5,1.38-4L1362.2,572a15.53,15.53,0,1,0-29.37-10.1A16.1,16.1,0,0,0,1332.18,564.49Z"/><path class="cls-15" d="M1359,581.39l-1.07,2.83s-11.89,6-28-5.62L1331,573Z"/><path class="cls-40" d="M1328.45,573.2c6.59,9.51,26.29,13.13,33,6.44l7.79-42.63c1.22-8.09-5.22-15.78-14.38-17.15-10-1.5-19.08,4.41-20.4,13.2Z"/><path class="cls-14" d="M1296.78,646.65l-9.48,6,.66,8.63,1.26,5.89,1.52,5.56,14.72-13.85a8.26,8.26,0,0,0,2.48-4.59l1.11-6.39Z"/><path class="cls-14" d="M1278.93,665.29a2.6,2.6,0,0,0,2.35-1.48c1.82-3.82,9.32-7.34,11.81-8.28a2.59,2.59,0,1,0-1.82-4.85c-1.18.44-11.64,4.51-14.67,10.91a2.58,2.58,0,0,0,2.33,3.7Z"/><path class="cls-14" d="M1284.5,654h.26a85.61,85.61,0,0,0,13.59-2.48,2.6,2.6,0,0,0-1.43-5,80.07,80.07,0,0,1-12.67,2.31,2.59,2.59,0,0,0,.25,5.17Z"/><path class="cls-14" d="M1280.72,671a2.59,2.59,0,0,0,2.46-1.8c1.3-4,8.28-8.49,10.62-9.74a2.59,2.59,0,0,0-2.43-4.57c-1.12.59-10.94,6-13.12,12.72a2.59,2.59,0,0,0,1.67,3.26A2.44,2.44,0,0,0,1280.72,671Z"/><path class="cls-14" d="M1285.31,673.05a2.59,2.59,0,0,0,2.46-1.8c1.31-4,8.11-8.4,10.63-9.74a2.59,2.59,0,0,0-2.44-4.57c-1.11.59-10.94,6-13.12,12.72a2.59,2.59,0,0,0,1.67,3.26A2.73,2.73,0,0,0,1285.31,673.05Z"/><path class="cls-14" d="M1290.52,674.63a2.6,2.6,0,0,0,2.57-2.25c.55-4.07,5.86-8.31,7.85-9.61a2.59,2.59,0,1,0-2.8-4.35c-.94.6-9.21,6.11-10.19,13.26a2.59,2.59,0,0,0,2.22,2.92Z"/><path class="cls-2" d="M1284.42,684.68l-15.34-43.2a4,4,0,0,0-1.63-2.06l-54.17-34.73a1.15,1.15,0,0,0-1.72,1.33l13.71,41.72Z"/><path class="cls-41" d="M1209.64,605.9l2.57-1.29h0a1.32,1.32,0,0,1,.33-.08l.07,0a1.15,1.15,0,0,1,.67.18l52.51,33.67h0l1.66,1.06a4,4,0,0,1,1.06,1l-2.69,1.28L1213,607.84l-.31.26Z"/><path class="cls-42" d="M1281.94,685.93l-15.34-43.2a4,4,0,0,0-1.63-2.05L1210.8,606a1.16,1.16,0,0,0-1.33,0,1.18,1.18,0,0,0-.39,1.28L1222.79,649Z"/><path class="cls-2" d="M1233.47,641.56c.57,5.24,5,11.21,9.77,13.33s8.27-.4,7.7-5.64-5-11.21-9.77-13.33S1232.9,636.32,1233.47,641.56Z"/><path class="cls-43" d="M1425.52,1325.86c0-29,0-51.51,0-51.55,2.45-28.19-64.07-25.91-62-1.83v52.06a13.13,13.13,0,0,0,0,2.08v127.3a16.83,16.83,0,0,0,0,2.75v51.51c-2.51,27.72,64.32,27.2,62,0,0-.06,0-22.61,0-51.7a15.5,15.5,0,0,0,0-1.67V1327.94A18,18,0,0,0,1425.52,1325.86Z"/><path class="cls-44" d="M1309.07,1203.51c17.94,31.07,41.73,56.22,67,70.8,24.46,14.12,47.23,16.53,64.1,6.8s26.15-30.66,26.15-58.91c0-29.16-9.88-62.33-27.82-93.41s-41.73-56.22-67-70.8c-24.47-14.12-47.23-16.54-64.1-6.8s-26.15,30.66-26.15,58.91C1281.25,1139.25,1291.13,1172.43,1309.07,1203.51Z"/><path class="cls-45" d="M1422.73,1342c-23-13.27-71.58-8.44-70.9,21.12,0,.09,0,22.84,0,23-.57,24.82,46,33.18,70.9,18.83,8.18-4.72,12.22-10.92,12.16-17.11v-28.41C1435.06,1351.77,1429.37,1345.85,1422.73,1342Z"/><path class="cls-30" d="M1536.34,1214.74c0-78.69-55.25-174.38-123.4-213.73-55.57-32.08-80-12.72-125.84,13.68l-.39.22c-22.44,12.85-36.33,40.54-36.33,80,0,78.7,55.24,174.39,123.39,213.74,27.29,15.75,60.4,24.31,87.84,8.3C1506.41,1291.39,1536.34,1279.74,1536.34,1214.74Zm-162.57-151.92c49.42,28.54,89.49,97.93,89.49,155,0,16.86-3.52,30.72-9.72,41.2-12.19.14-26-3.74-40.6-12.19-49.42-28.53-89.48-97.92-89.48-155,0-16.86,3.51-30.72,9.71-41.2C1345.36,1050.5,1359.15,1054.38,1373.77,1062.82Z"/><path class="cls-27" d="M1373.77,1023.66c-68.15-39.35-123.39-7.45-123.39,71.24s55.24,174.39,123.39,213.74,123.4,7.45,123.4-71.25S1441.93,1063,1373.77,1023.66Zm0,245.81c-49.42-28.53-89.48-97.92-89.48-155s40.06-80.2,89.48-51.67,89.49,97.93,89.49,155S1423.19,1298,1373.77,1269.47Z"/><path class="cls-43" d="M1372.73,1356.45c12,7,31.57,7,43.61,0s12.05-18.23,0-25.18-31.57-7-43.61,0S1360.68,1349.49,1372.73,1356.45Z"/></g></g></g></svg>